<svg xmlns="http://www.w3.org/2000/svg" viewBox="0 0 871.69 723.13"><defs><style>.cls-1{fill:#e3e5fc;}.cls-2{fill:#a7adff;}.cls-3{fill:#4b369d;}.cls-4{fill:#f3aa02;}.cls-5{fill:#fff;}.cls-6{fill:#d4a79a;}.cls-7{fill:#eac2ab;}.cls-8{fill:#fdc510;}.cls-9{fill:#5a54ff;}.cls-10{fill:#d7384e;}.cls-11{fill:#f44e4e;}</style></defs><g id="Layer_2" data-name="Layer 2"><g id="Layer_1-2" data-name="Layer 1"><g id="Background"><g id="Chair"><path class="cls-1" d="M3.13,722.53C-2,717.45.5,681.76,1.3,676l9.6-68.89q9.73-69.87,19.46-139.73,1.11-8,2.23-16c1.54-8.86,10.33-15.6,19.52-15S67.57,444.82,66,453.68C46.68,541.39,23.17,629.26,8.85,717.43a7.15,7.15,0,0,1-1.22,3.46C5.7,723.29,4.24,723.63,3.13,722.53Z"/><path class="cls-1" d="M218.24,721.6c5-5.23,1.7-40.84.77-46.54l-11.16-68.58q-11.31-69.54-22.63-139.09-1.29-8-2.59-15.9c-1.74-8.81-10.68-15.28-19.86-14.38s-15.26,8.83-13.52,17.63C170.59,541.83,196.08,629,212.4,716.66a7.15,7.15,0,0,0,1.3,3.42C215.69,722.44,217.16,722.74,218.24,721.6Z"/><path class="cls-2" d="M190,477.8H28.15A27.23,27.23,0,0,1,1,450.65H1A27.23,27.23,0,0,1,28.15,423.5H190a27.23,27.23,0,0,1,27.15,27.15h0A27.21,27.21,0,0,1,190,477.8Z"/></g><g id="Lamp"><path class="cls-3" d="M582.9,286.74l57.51-129.61a4.09,4.09,0,0,1,5.38-2.07l1,.44a4.09,4.09,0,0,1,2.07,5.38L591.34,290.49a4.09,4.09,0,0,1-5.38,2.07l-1-.44A4.09,4.09,0,0,1,582.9,286.74Z"/><path class="cls-3" d="M638.47,153.33,593.61,18.82a4.09,4.09,0,0,1,2.58-5.16l1-.35a4.09,4.09,0,0,1,5.16,2.58L647.25,150.4a4.09,4.09,0,0,1-2.58,5.16l-1,.35A4.11,4.11,0,0,1,638.47,153.33Z"/><circle class="cls-2" cx="644.93" cy="158.06" r="11.36"/><path class="cls-1" d="M582.45,278.8c-21,0-38,15.88-38,35.48h76C620.43,294.68,603.42,278.8,582.45,278.8Z"/><path class="cls-4" d="M605,3.4C593.65-7.94,557.29,10,523.78,43.54l41.07,41.07C598.36,51.1,616.33,14.74,605,3.4Z"/><path class="cls-1" d="M520.4,91.86a1.83,1.83,0,0,1-1.35-.58,1.87,1.87,0,0,1,.06-2.65L536.52,72a1.87,1.87,0,1,1,2.59,2.71L521.7,91.34A1.85,1.85,0,0,1,520.4,91.86Z"/><path class="cls-1" d="M540.05,109.23a1.91,1.91,0,0,1-.92-.24,1.87,1.87,0,0,1-.71-2.55l11.79-21a1.87,1.87,0,1,1,3.26,1.83l-11.79,21A1.85,1.85,0,0,1,540.05,109.23Z"/><path class="cls-1" d="M501.24,72.47a1.87,1.87,0,0,1-.69-3.62L523,60.12a1.88,1.88,0,0,1,1.37,3.5l-22.45,8.73A2,2,0,0,1,501.24,72.47Z"/></g><g id="Coffee"><path class="cls-3" d="M781.55,521H718.3c.81,5.39,1.6,10.86,2.43,16.33H778C778.74,528.24,779.87,521,781.55,521Z"/><path class="cls-4" d="M730.74,584.12c1.18,1.19,2.78,1.22,4.26,1.18,8.54-.19,17.1.35,25.65.3,8.07,0,14.75.61,15.59-12.8.18-2.83.52-21.37,1.72-35.48H720.72c2.16,14.39,4.54,28.89,8.12,42.56A9.51,9.51,0,0,0,730.74,584.12Z"/><circle class="cls-5" cx="749.92" cy="558.48" r="9.99"/><path class="cls-1" d="M741,513.41s-21-14.08-6-23,12.71-21.21,6-23.21,14-10.15,14-10.15-14,4.73-5.79,10.15,28.91,18.76,13.34,23.21,15.72,11.81,5.63,20S741,513.41,741,513.41Z"/></g></g><g id="Characters"><g id="Man"><g id="Head"><path id="Neck" class="cls-6" d="M210.44,151.29,193.66,202l-44.47,4.55s33.85-28.81,38.35-61.45S210.44,151.29,210.44,151.29Z"/><path id="Face" class="cls-7" d="M281.92,75.85s5.6,14-12.66,47.28S228.83,183,218.69,178c-28.06-14-32.75-37.82-38.13-58.63-6.6-25.51,33.13-72.52,33.13-72.52l27.14-6.31Z"/><path id="Hair" class="cls-3" d="M316.65,75.16c.29-.5.57-1,.84-1.55a60.14,60.14,0,0,0,5.29-37.07c-4-20.34-24.41-22.5-41.57-18.82-7.84,1.68-15.18,6.81-23.48,4.15-6.19-2-9.32-7.79-14-11.74A35.61,35.61,0,0,0,224.49,2.2c-14.61-1.53-28.05,6-36.06,18a33,33,0,0,0-5.72,16.49,5.56,5.56,0,0,0-6-2.24c-20.39,4-19.22,33.57-18.32,49.1.75,13,0,29.1,7.92,40.21,3.15,4.43,11.41,11.48,16.43,6.56,4.48-4.39,1-17.84,2.18-23.6,1.68-8.09.94-46.87,42.2-43.95,16.4,1.16,28,29.21,43.38,34.09C286.16,101.81,307.91,90.18,316.65,75.16Z"/><path id="Ear" class="cls-7" d="M188.6,96s-11.44-12.7-10,6.83,11.68,23.46,11.68,23.46Z"/></g><g id="Leg"><path id="Skin" class="cls-7" d="M405.55,568.55,432,634l-19.64,11.66-23.8-70S398.44,567.62,405.55,568.55Z"/><path id="Shoe" class="cls-4" d="M522.77,643.3s-14.66,8.92-44.32,17.45-63,16.6-70,13.1-18.19-43.08-8.16-45.14S417,641.3,432.23,623.9c13-14.91,29.14,4.87,56.59,5.41S527.38,630,522.77,643.3Z"/><path id="Leg-2" data-name="Leg" class="cls-3" d="M206,380.74c13.36,1.51,46.76,17.12,59.07,21.74,26.42,9.92,66.07,67,82.15,87.23C365,512,381.83,519.79,397.77,543c11.15,16.11,33,20.27,44.33,35,8.6,11.19,4.65,11.31-8.54,18.47-18.09,9.82-71.51,61.65-79.74,30-3.07-11.83-25-36.93-33-46.8-18.73-23.17-13.38-58.68-29.44-83.23-7.82-11.95-13.44-26-27.07-33.41-11.44-6.23-26-6.31-39.61-6.17-18.8.18-29.36-32.49-48.17-32.31-24.79.24-50.44,24.3-70.32,11.86-33.42-20.93,11.84-22.73,30.54-23.46C173.81,411.48,169.23,376.6,206,380.74Z"/></g><g id="Leg-3" data-name="Leg"><path id="Skin-2" data-name="Skin" class="cls-7" d="M330.83,610.41l31.55,63.08-20,12.72-29-67.77S323.29,609.92,330.83,610.41Z"/><path id="Shoe-2" data-name="Shoe" class="cls-8" d="M453.35,693.3s-16.1,7.59-47.91,13.56S338,718,330.92,714s-15.76-44-5.06-45.24,16.59,13.81,33.89-2.11c14.83-13.64,30.23,7.22,59,10S459.23,680.59,453.35,693.3Z"/><path id="Leg-4" data-name="Leg" class="cls-9" d="M176.57,374.12c13.36,1.91,25.69,7.47,38,13.34,26.42,12.6,48.51,47.07,64.59,72.73q26.59,42.46,50.53,86.75c6.05,11.2,8.53,23.74,14.15,35,9.3,18.66,57.37,44.17,26.08,65.28-20.08,13.54-51.82,7-74.46,6.94a5.32,5.32,0,0,1-3.37-.77c-1.09-.87-1.32-2.41-1.47-3.8-3.14-29.47-6.14-54.12-19.49-80.81-18.73-29.43-31.73-49.89-47.79-81.06-7.82-15.18-7.29-27.66-20.91-37.08-11.44-7.92-23.24-5.55-36.87-5.38-18.8.23-34.94-.23-53.74,0-24.79.3-41-.5-54.38-22.08C31.77,381.85,50,382.6,68.72,381.68,105.73,379.84,139.78,368.85,176.57,374.12Z"/></g><path id="Arm" class="cls-7" d="M206.66,231.23s15.68,59.94,21.74,61.27c5.08,1.11,11.29,0,16.41-.21,10.51-.48,21-1.16,31.51-1.87,18.17-1.24,36.88-1.68,54.88-4.63,11-1.8,31.17-4.49,39.5-12.56,11.31-10.94,31.47,14.2,37.18,20.89.83,1,1.62,2.51.68,3.36a2.22,2.22,0,0,1-1.64.4c-4.08-.17-7.68-2.57-11-4.87a46,46,0,0,1,7.47,11.56c-3.72-1.42-6.94-3.91-10.61-5.44C378,293,366,314.48,349.45,306.83c-11.1-5.13-23.62-1.62-35.16-.34q-15.59,1.72-31.2,3.23c-19.46,1.9-39.81,5.2-59.41,4.44a13.74,13.74,0,0,1-3.73-.3c-6.16-2.08-17.9-28.48-26.62-51.5-5.5-14.52-12.63-30.14-7.52-52.87C190.51,188.65,212.4,198.06,206.66,231.23Z"/><g id="Body"><path class="cls-10" d="M180.1,273.35a239.4,239.4,0,0,1,10.74-33c6.6-16.13,18.43-38.07,8.33-55.33a22,22,0,0,0-5.35-6.7c-26.38-20.26-67.31,18.38-84.37,38.61C88,242.47,87.19,253.35,78.08,283.31,68,316.58,58.88,351.42,43.55,383.09c-1.65,3.42-3,8.09.51,10.38,1.6,1,3.71,1.16,5.68,1.16,13.69,0,26.81-3.78,39.7-7.4,20.42-5.73,19.52-8,40.89-4.25,8.39,1.46,16.36-1,24.86-1.11,2.1,0,10.44-1,12.22-1.82,13.9-6.47-3-10.26-3.74-12C150.88,336.44,171.67,307.4,180.1,273.35Z"/><path class="cls-11" d="M212.55,250.94s2.51-72.53-30-67.2-19,87.08-19,87.08l53.11-9.45Z"/></g></g></g><g id="Background-2" data-name="Background"><g id="Table"><path class="cls-1" d="M277.72,722.36c-4.89-6.86-.76-57.38.31-65.52L290.87,559l26-198.39q1.48-11.34,3-22.68c2-12.59,11.11-22.64,20.34-22.33s15.17,10.86,13.21,23.45C329.91,464,302.2,589.49,283.71,714.8a14,14,0,0,1-1.39,5C280.28,723.28,278.79,723.85,277.72,722.36Z"/><path class="cls-1" d="M606.44,722.36c4.89-6.86.76-57.38-.31-65.52L593.29,559l-26-198.39q-1.49-11.34-3-22.68c-2-12.59-11.11-22.64-20.34-22.33s-15.17,10.86-13.21,23.45C554.25,464,582,589.49,600.45,714.8a14,14,0,0,0,1.39,5C603.89,723.28,605.38,723.85,606.44,722.36Z"/><path class="cls-2" d="M749.21,335H205.16a10.39,10.39,0,0,1-10.36-10.36h0a10.39,10.39,0,0,1,10.36-10.36H749.21a10.39,10.39,0,0,1,10.36,10.36h0A10.39,10.39,0,0,1,749.21,335Z"/></g></g><g id="Nature"><g id="Plant"><path class="cls-8" d="M656.35,279.63a9.69,9.69,0,0,0,3.93-11.13c-2.32-6.56-8.31-4.35-12.58-7.79-5-4,1-10.43.72-15.22-.37-5.27-5.11-10.35-6.53-15.44-3.27-11.7,10-3,13.82-4.33a5.11,5.11,0,0,0,3-3.81c.93-4.2-.84-7.6,1.46-11.58s5.51-5.58,4.56-10.79c-.54-3-2.36-5.66-2.31-8.66a2.53,2.53,0,0,1,1-2.25,2.37,2.37,0,0,1,1.9,0c2,.72,3.39,2.63,5,4s4.3,2.29,5.88.8c1-1,1.16-2.59,1.37-4,.39-2.58,2.2-4.37,4.44-2.88,2.45,1.62,1.51,8,1.14,10.32-.59,3.64-1.47,7.42-.39,10.94,1.79,5.83,6.67-.7,8.8-2.63,1.74-1.58,4.66-2.53,6.34-.88,3.33,3.29-2,7.68-2.73,10.8a3.69,3.69,0,0,0,1.42,4c3.86,2.24,7.12-1.75,7.7,4.2.4,4.07-3.29,8-1,12,2,3.56,8.65,5.07,6,10.07-1.62,3.07-8.57,2.93-8.2,7.29.24,2.84,4.52,4.14,4.52,7,0,2.15-2.5,3.42-4.65,3.53s-4.41-.39-6.39.45a5.18,5.18,0,0,0-2.85,6.05c.6,2,2.5,3.89,1.9,5.92-.72,2.45-4.11,2.54-6.63,2.15C676.77,276.18,665.74,275.11,656.35,279.63Z"/><path class="cls-5" d="M675.8,279.83a1.87,1.87,0,0,1-1.87-1.87V232a1.87,1.87,0,1,1,3.74,0V278A1.87,1.87,0,0,1,675.8,279.83Z"/><path class="cls-5" d="M675.8,261.94a1.88,1.88,0,0,1-1.46-3.06l12-14.86a1.87,1.87,0,1,1,2.91,2.36l-12,14.86A1.82,1.82,0,0,1,675.8,261.94Z"/><path class="cls-5" d="M675.8,249.4a1.84,1.84,0,0,1-1.21-.44l-14.36-12.09a1.87,1.87,0,1,1,2.41-2.87L677,246.09a1.87,1.87,0,0,1-1.2,3.31Z"/><path class="cls-10" d="M654.34,273.19c1.89,12.56,3.59,25.7,6.77,37.81a6.09,6.09,0,0,0,1.21,2.71,3.47,3.47,0,0,0,2.74.76c5.48-.13,11,.23,16.47.2,5.18,0,9.47.39,10-8.22.19-3,.66-33.26,3.41-33.26Z"/><path class="cls-11" d="M691.24,280.7H658.05a7.53,7.53,0,0,1-7.51-7.51h0a7.53,7.53,0,0,1,7.51-7.51h33.19a7.53,7.53,0,0,1,7.51,7.51h0A7.53,7.53,0,0,1,691.24,280.7Z"/></g></g><g id="UI"><g id="Laptop"><path class="cls-3" d="M457.81,313.14H290a4.09,4.09,0,0,1-4.08-4.08h0A4.09,4.09,0,0,1,290,305H457.81a4.09,4.09,0,0,1,4.08,4.08h0A4.1,4.1,0,0,1,457.81,313.14Z"/><path class="cls-3" d="M453.62,307.4l83.89-145.29a4.09,4.09,0,0,1,5.57-1.49h0a4.09,4.09,0,0,1,1.49,5.57L460.68,311.48a4.09,4.09,0,0,1-5.57,1.49h0A4.09,4.09,0,0,1,453.62,307.4Z"/></g><g id="Server"><path class="cls-2" d="M830.41,626.43H661.79a17.22,17.22,0,0,1-17.17-17.17v-6.47a17.22,17.22,0,0,1,17.17-17.17H830.41a17.22,17.22,0,0,1,17.17,17.17v6.47A17.22,17.22,0,0,1,830.41,626.43Z"/><path class="cls-2" d="M854.52,670.81H685.9a17.22,17.22,0,0,1-17.17-17.17v-6.47A17.22,17.22,0,0,1,685.9,630H854.52a17.22,17.22,0,0,1,17.17,17.17v6.47A17.21,17.21,0,0,1,854.52,670.81Z"/><path class="cls-2" d="M830.41,715.62H661.79a17.22,17.22,0,0,1-17.17-17.17V692a17.22,17.22,0,0,1,17.17-17.17H830.41A17.22,17.22,0,0,1,847.58,692v6.47A17.23,17.23,0,0,1,830.41,715.62Z"/><circle class="cls-5" cx="661.16" cy="605.71" r="4.68"/><circle class="cls-5" cx="829.78" cy="605.71" r="4.68"/><circle class="cls-5" cx="684.58" cy="648.49" r="4.68"/><circle class="cls-5" cx="853.2" cy="648.49" r="4.68"/><circle class="cls-5" cx="662.1" cy="694.97" r="4.68"/><circle class="cls-5" cx="830.72" cy="694.97" r="4.68"/></g></g></g></g></svg>