<?xml version="1.0" encoding="utf-8"?>
<!-- Generator: Adobe Illustrator 23.0.3, SVG Export Plug-In . SVG Version: 6.00 Build 0)  -->
<svg version="1.1" xmlns="http://www.w3.org/2000/svg" xmlns:xlink="http://www.w3.org/1999/xlink" x="0px" y="0px"
	 viewBox="0 0 1799.6 1200.87" style="enable-background:new 0 0 1799.6 1200.87;" xml:space="preserve">
<style type="text/css">
	.st0{fill:#E6E7E8;}
	.st1{fill:#78DFE8;}
	.st2{fill:#1A4A67;}
	.st3{fill:#FFFFFF;}
	.st4{fill:#37C1D3;}
	.st5{fill:#8BDEEC;}
</style>
<g id="UI">
	<g id="_x34_04">
		<g>
			<ellipse class="st0" cx="953.93" cy="743.43" rx="148.17" ry="20.03"/>
			<g>
				<path class="st1" d="M1112.05,496.97c0,28.72-1.75,53.42-5.25,74.08c-3.51,20.67-9.98,39.41-19.44,56.22
					c-11.91,20.67-27.32,36.61-46.24,47.81c-18.91,11.21-39.93,16.81-63.05,16.81c-26.62,0-50.48-7.53-71.59-22.59
					c-21.11-15.06-37-35.9-47.69-62.53c-5.43-14.54-9.42-30.61-11.95-48.21c-2.54-17.6-3.81-36.65-3.81-57.14
					c0-26.44,1.4-50.26,4.2-71.46c2.8-21.19,7.18-39.4,13.14-54.64c10.33-25.22,25.35-44.44,45.06-57.66
					c19.71-13.22,43.22-19.83,70.54-19.83c18.04,0,34.42,2.93,49.13,8.8c14.71,5.87,27.62,14.45,38.75,25.75
					c11.12,11.3,20.53,25.26,28.24,41.9C1105.39,403.18,1112.05,444.08,1112.05,496.97z M1040.07,491.71
					c0-32.05-1.93-58.28-5.78-78.69c-3.86-20.4-10.33-35.81-19.44-46.24c-9.11-10.42-21.72-15.63-37.83-15.63
					c-23.12,0-39.19,11.65-48.21,34.94c-9.02,23.29-13.53,59.2-13.53,107.71c0,32.93,1.93,59.9,5.78,80.92
					c3.85,21.02,10.33,36.91,19.44,47.68c9.1,10.77,21.45,16.16,37.04,16.16c16.11,0,28.72-5.6,37.83-16.81
					c9.1-11.21,15.5-27.23,19.18-48.08C1038.23,552.84,1040.07,525.52,1040.07,491.71z"/>
				<path class="st2" d="M978.06,694.71c-27.1,0-51.73-7.78-73.22-23.11c-21.45-15.3-37.83-36.76-48.66-63.77
					c-5.5-14.72-9.57-31.13-12.13-48.85c-2.55-17.65-3.84-37.01-3.84-57.54c0-26.45,1.42-50.61,4.23-71.83
					c2.81-21.31,7.29-39.91,13.3-55.3c10.51-25.67,26.02-45.5,46.11-58.97c20.08-13.48,44.34-20.31,72.1-20.31
					c18.31,0,35.19,3.03,50.17,9c15.01,5.99,28.37,14.87,39.71,26.39c11.3,11.48,20.99,25.84,28.79,42.7
					c13.42,29.14,20.22,70.81,20.22,123.87c0,28.76-1.78,53.84-5.29,74.55c-3.55,20.91-10.2,40.13-19.76,57.13
					c-12.12,21.03-28.01,37.45-47.26,48.85C1023.28,688.92,1001.59,694.71,978.06,694.71z M975.96,300.64
					c-26.63,0-49.83,6.51-68.97,19.36c-19.14,12.85-33.95,31.82-44.02,56.4c-5.83,14.92-10.2,33.09-12.95,53.95
					c-2.77,20.97-4.18,44.89-4.18,71.09c0,20.26,1.27,39.35,3.78,56.74c2.5,17.32,6.47,33.34,11.8,47.62
					c10.41,25.93,26.12,46.55,46.69,61.23c20.52,14.64,44.05,22.07,69.95,22.07c22.5,0,43.23-5.52,61.62-16.42
					c18.41-10.9,33.62-26.65,45.24-46.8c9.23-16.41,15.66-35.02,19.1-55.29c3.46-20.4,5.21-45.17,5.21-73.61
					c0-52.24-6.63-93.12-19.71-121.51c-7.53-16.26-16.85-30.09-27.69-41.11c-10.79-10.96-23.51-19.41-37.79-25.11
					C1009.74,303.53,993.56,300.64,975.96,300.64z M977.54,641.38c-16.39,0-29.57-5.77-39.19-17.15
					c-9.39-11.1-16.14-27.58-20.06-48.99c-3.87-21.08-5.83-48.47-5.83-81.42c0-48.64,4.62-85.22,13.72-108.73
					c9.44-24.38,26.54-36.74,50.83-36.74c16.89,0,30.33,5.58,39.95,16.59c9.4,10.75,16.16,26.76,20.09,47.56
					c3.87,20.51,5.83,47.16,5.83,79.21c0,33.8-1.87,61.55-5.56,82.45c-3.74,21.22-10.39,37.83-19.76,49.36
					C1007.93,635.38,994.46,641.38,977.54,641.38z M977.01,353.97c-22.04,0-36.95,10.84-45.59,33.15
					c-8.85,22.86-13.34,58.75-13.34,106.7c0,32.61,1.93,59.67,5.73,80.41c3.74,20.43,10.08,36.03,18.82,46.37
					c8.62,10.2,20.04,15.16,34.9,15.16c15.36,0,27.02-5.16,35.65-15.78c8.76-10.78,15.02-26.53,18.59-46.79
					c3.63-20.59,5.47-48,5.47-81.48c0-31.7-1.93-58-5.73-78.16c-3.74-19.81-10.07-34.92-18.79-44.91
					C1004.1,358.77,992.42,353.97,977.01,353.97z"/>
			</g>
		</g>
		<g>
			<ellipse class="st0" cx="1241.4" cy="841.21" rx="148.17" ry="20.03"/>
			<g>
				<path class="st1" d="M1283.59,767.13v-48.87H1151.7c-16.64,0-29.12-3.76-37.44-11.3c-8.32-7.53-12.48-17.77-12.48-30.74
					c0-3.33,0.61-6.7,1.84-10.12c1.23-3.42,3.07-7,5.52-10.77c2.45-3.76,4.99-7.4,7.62-10.9c2.63-3.5,5.87-7.79,9.72-12.88
					l139.24-186.26c9.1-12.26,16.59-21.15,22.46-26.67c5.86-5.52,12.91-8.28,21.15-8.28c26.62,0,39.93,15.24,39.93,45.71v203.35
					h11.3c13.48,0,24.3,1.84,32.44,5.52c8.14,3.68,12.22,11.74,12.22,24.17c0,10.16-3.33,17.56-9.98,22.2
					c-6.66,4.64-16.64,6.96-29.95,6.96h-16.02v48.87c0,13.49-2.98,23.51-8.93,30.08c-5.95,6.57-13.93,9.85-23.9,9.85
					c-9.81,0-17.74-3.37-23.78-10.11C1286.61,790.21,1283.59,780.27,1283.59,767.13z M1170.62,659.42h112.97V506.78L1170.62,659.42z
					"/>
				<path class="st2" d="M1316.43,809.87c-10.6,0-19.3-3.72-25.87-11.05c-6.49-7.24-9.78-17.9-9.78-31.69v-46.06H1151.7
					c-17.29,0-30.51-4.05-39.33-12.03c-8.89-8.05-13.4-19.09-13.4-32.82c0-3.64,0.67-7.37,2-11.06c1.3-3.61,3.26-7.43,5.81-11.36
					c2.46-3.77,5.05-7.49,7.72-11.05c2.63-3.51,5.88-7.8,9.73-12.89l139.23-186.25c9.16-12.33,16.82-21.43,22.79-27.03
					c6.37-6,14.14-9.04,23.07-9.04c28.36,0,42.74,16.32,42.74,48.52v200.54h8.49c13.82,0,25.13,1.94,33.6,5.77
					c9.21,4.16,13.87,13.15,13.87,26.73c0,11.09-3.76,19.33-11.19,24.5c-7.11,4.95-17.72,7.47-31.56,7.47h-13.22v46.06
					c0,14.14-3.25,24.9-9.66,31.97C1335.93,806.24,1327.19,809.87,1316.43,809.87z M1309.33,413.17c-7.56,0-13.85,2.46-19.22,7.51
					c-5.72,5.38-13.17,14.22-22.13,26.3l-139.25,186.27c-3.86,5.09-7.1,9.38-9.72,12.88c-2.59,3.46-5.12,7.08-7.51,10.75
					c-2.32,3.56-4.08,6.99-5.23,10.19c-1.11,3.09-1.67,6.17-1.67,9.16c0,12.24,3.78,21.61,11.55,28.65
					c7.75,7.01,19.7,10.57,35.55,10.57h134.7v51.68c0,12.36,2.81,21.77,8.35,27.94c5.54,6.18,12.63,9.18,21.68,9.18
					c9.24,0,16.38-2.92,21.82-8.93c5.44-6,8.2-15.49,8.2-28.19v-51.68h18.84c12.66,0,22.2-2.17,28.34-6.46
					c5.91-4.12,8.78-10.62,8.78-19.89c0-11.33-3.45-18.4-10.56-21.61c-7.74-3.49-18.26-5.27-31.29-5.27h-14.11V456.07
					C1346.45,427.2,1334.31,413.17,1309.33,413.17z M1286.4,662.23h-121.35l121.35-163.97V662.23z M1176.2,656.61h104.58V515.3
					L1176.2,656.61z"/>
			</g>
		</g>
		<g>
			<ellipse class="st0" cx="663.54" cy="870.24" rx="148.17" ry="20.03"/>
			<g>
				<path class="st1" d="M707.66,798.97V750.1H575.78c-16.64,0-29.12-3.76-37.44-11.3c-8.32-7.53-12.48-17.77-12.48-30.74
					c0-3.33,0.61-6.7,1.84-10.12c1.22-3.42,3.06-7,5.52-10.77c2.45-3.76,4.99-7.4,7.62-10.9c2.63-3.5,5.87-7.79,9.72-12.88
					L689.8,477.14c9.11-12.26,16.59-21.15,22.46-26.67c5.87-5.52,12.91-8.28,21.15-8.28c26.62,0,39.93,15.24,39.93,45.71v203.35
					h11.3c13.49,0,24.3,1.84,32.45,5.52c8.14,3.68,12.22,11.74,12.22,24.17c0,10.16-3.33,17.56-9.98,22.2
					c-6.66,4.64-16.64,6.96-29.95,6.96h-16.02v48.87c0,13.49-2.98,23.51-8.93,30.08c-5.96,6.57-13.92,9.85-23.91,9.85
					c-9.81,0-17.73-3.37-23.78-10.11C710.68,822.05,707.66,812.11,707.66,798.97z M594.69,691.26h112.97V538.62L594.69,691.26z"/>
				<path class="st2" d="M740.5,841.71c-10.59,0-19.29-3.72-25.87-11.05c-6.49-7.24-9.78-17.9-9.78-31.69v-46.06H575.78
					c-17.28,0-30.51-4.05-39.33-12.02c-8.89-8.05-13.4-19.09-13.4-32.82c0-3.64,0.67-7.37,2-11.07c1.29-3.6,3.25-7.42,5.81-11.36
					c2.43-3.75,5.04-7.47,7.72-11.05c2.63-3.51,5.87-7.8,9.73-12.89l139.23-186.25c9.16-12.33,16.83-21.43,22.79-27.03
					c6.37-6,14.14-9.04,23.07-9.04c28.36,0,42.74,16.33,42.74,48.52v200.54h8.49c13.82,0,25.13,1.94,33.6,5.77
					c9.2,4.16,13.87,13.15,13.87,26.73c0,11.09-3.76,19.33-11.19,24.5c-7.11,4.95-17.72,7.47-31.56,7.47h-13.21v46.06
					c0,14.14-3.25,24.89-9.66,31.97C760.01,838.09,751.27,841.71,740.5,841.71z M733.41,445.01c-7.56,0-13.85,2.46-19.23,7.51
					c-5.72,5.37-13.16,14.22-22.13,26.29L552.81,665.09c-3.86,5.09-7.1,9.38-9.73,12.88c-2.61,3.49-5.14,7.1-7.51,10.75
					c-2.32,3.57-4.08,7-5.23,10.19c-1.11,3.09-1.67,6.17-1.67,9.17c0,12.25,3.78,21.62,11.55,28.65
					c7.75,7.01,19.7,10.57,35.55,10.57h134.7v51.68c0,12.37,2.81,21.77,8.34,27.94c5.54,6.17,12.63,9.18,21.68,9.18
					c9.24,0,16.38-2.92,21.82-8.93c5.44-6.01,8.21-15.49,8.21-28.19v-51.68h18.83c12.66,0,22.2-2.17,28.34-6.46
					c5.91-4.12,8.78-10.62,8.78-19.89c0-11.33-3.45-18.4-10.56-21.61c-7.74-3.49-18.27-5.27-31.29-5.27h-14.11V487.91
					C770.53,459.04,758.39,445.01,733.41,445.01z M710.47,694.07H589.12L710.47,530.1V694.07z M600.27,688.45h104.58V547.14
					L600.27,688.45z"/>
			</g>
		</g>
	</g>
</g>
<g id="Nature">
	<g id="Plant_1_">
		<path class="st2" d="M339.39,699.83c0.58-9.24,3.06-20.26,11.8-23.3c12.84-4.47,22.07,11.77,31.86,21.21
			c2.24,2.16,4.94,4.12,8.04,4.39c3.09,0.27,6.11-1.19,8.55-3.11c8.54-6.74,11.21-18.44,12.22-29.27
			c1.02-10.83,1.08-22.22,6.32-31.76c5.23-9.53,18-16.05,27.22-10.31c20.75,12.9,27.69-17.79,40.35-27.83
			c5.33-4.23,12.74-6.51,19.08-4.04c6.22,2.42,10.04,8.73,12.26,15.02c5.04,14.33,4.26,33-4.16,46.05
			c-7.92,12.27-25.52,17.15-27.74,33.53c-1.53,11.27,6.45,22.64,3.42,33.6c-2.53,9.14-11.93,14.85-15.49,23.64
			c-4.79,11.85,2.12,26.25-3.39,37.77c-3.59,7.49-11.69,11.99-15.47,19.39c-4.65,9.12-1.66,20.08-2.23,30.3
			c-1.21,21.9-21.29,42.18-43.98,40.21c-19.39-1.68-28.43-23.92-37.09-39.26C347.75,794.9,336.41,747,339.39,699.83z"/>
		<g>
			<path class="st3" d="M411.53,820.96c-0.23,0-0.48-0.03-0.71-0.09c-1.5-0.39-2.4-1.93-2.01-3.43l29.08-111.8
				c0.39-1.5,1.94-2.4,3.43-2.01c1.5,0.39,2.4,1.93,2.01,3.43l-29.08,111.8C413.91,820.12,412.78,820.96,411.53,820.96z"/>
		</g>
		<g>
			<path class="st3" d="M428.53,755.58c-0.85,0-1.68-0.38-2.23-1.1l-23.6-30.77c-0.95-1.23-0.71-3,0.52-3.94
				c1.23-0.95,2.99-0.71,3.94,0.52l23.6,30.77c0.95,1.23,0.71,3-0.52,3.94C429.73,755.39,429.13,755.58,428.53,755.58z"/>
		</g>
		<g>
			<path class="st4" d="M390.09,883.84c-8.85-3.74-17.08-12.07-25.41-18.87c-18.18-14.86-18.82-34.05-104.18-48.27
				c-39.68-6.61-10.4-49.25-32.38-83.08c-6.94-10.68-13.64-22.5-13.11-35.23s11.36-25.79,23.97-23.95
				c7.57,1.1,13.42,6.92,19.86,11.05c6.44,4.13,15.79,6.34,21.13,0.87c-4.05-8.56-10.9-15.41-16.27-23.21
				c-5.37-7.79-9.35-17.58-6.54-26.62c4.34-13.97,16.99-5.23,22.33-10.96c7.17-7.68,5.3-28.16,10.6-38.74
				c12.43-24.81,55.93-34.4,72.17-7.56c18.8,31.07,6.71,73.7-2.41,109.01c-12.68,49.09,36.33,65.58,52.35,99.46
				c11.54,24.43,28.57,68.67,3.57,90.78C406.37,886.85,397.98,887.18,390.09,883.84z"/>
			<path class="st2" d="M399.18,888.63c-3.33,0-6.71-0.73-10.19-2.2l0,0c-7.15-3.02-13.78-8.75-20.2-14.29
				c-1.96-1.7-3.93-3.39-5.89-5c-3.68-3.01-6.58-6.09-9.65-9.35c-11.91-12.67-25.41-27.02-93.21-38.32
				c-25.12-4.18-25.18-22.2-25.25-41.27c-0.05-13.75-0.11-29.33-9.02-43.05c-6.86-10.56-14.14-22.99-13.56-36.88
				c0.33-8.12,4.42-16.38,10.68-21.57c4.93-4.09,10.76-5.89,16.5-5.05c6.28,0.92,11.29,4.56,16.14,8.09
				c1.6,1.16,3.19,2.33,4.83,3.38c4.95,3.18,11.72,5.06,16.08,2.47c-2.42-4.48-5.61-8.52-8.95-12.77c-2.05-2.6-4.16-5.28-6.09-8.08
				c-5.01-7.27-10.28-18.21-6.91-29.04c3.25-10.48,11.13-10.57,16.33-10.63c2.88-0.03,5.36-0.06,6.63-1.41
				c3.4-3.65,4.54-11.65,5.65-19.38c0.96-6.7,1.95-13.62,4.49-18.7c7.19-14.34,24.15-24.46,42.21-25.18
				c15.04-0.59,27.82,5.75,34.88,17.43c18.72,30.94,8.2,71.48-1.08,107.25l-1.01,3.91c-7.87,30.45,9.01,47.52,26.88,65.59
				c9.59,9.7,19.5,19.73,25.29,31.96c21.38,45.22,22.35,76.88,2.9,94.09C411.6,885.98,405.5,888.63,399.18,888.63z M391.18,881.26
				c8.08,3.42,15.11,1.93,22.73-4.82c17.36-15.35,15.92-44.78-4.25-87.48c-5.38-11.37-14.95-21.05-24.2-30.41
				c-18.19-18.39-36.99-37.42-28.33-70.95l1.02-3.92c9-34.69,19.21-74.02,1.71-102.93c-8.19-13.52-22.27-15.03-29.85-14.72
				c-15.82,0.63-31.21,9.71-37.4,22.09c-2.14,4.26-3.06,10.73-3.96,16.98c-1.23,8.6-2.5,17.48-7.11,22.42
				c-2.9,3.11-7.03,3.16-10.67,3.2c-5.22,0.06-8.99,0.1-11.03,6.67c-2.69,8.67,1.87,17.94,6.17,24.19c1.83,2.65,3.89,5.26,5.88,7.79
				c3.86,4.89,7.85,9.96,10.62,15.81l0.84,1.77l-1.36,1.4c-6.38,6.53-16.98,4.47-24.67-0.46c-1.73-1.11-3.41-2.33-5.1-3.56
				c-4.49-3.27-8.74-6.36-13.64-7.07c-5.27-0.78-9.49,1.65-12.1,3.81c-4.99,4.14-8.39,11-8.65,17.48
				c-0.5,12.24,6.28,23.75,12.66,33.58c9.81,15.11,9.88,31.56,9.93,46.09c0.07,18.78,0.12,32.35,20.55,35.75
				c69.68,11.61,83.87,26.7,96.39,40.01c2.94,3.12,5.71,6.07,9.11,8.85c2.01,1.64,4.01,3.37,6.01,5.1
				C378.55,873.15,384.84,878.58,391.18,881.26L391.18,881.26z"/>
		</g>
		<path class="st5" d="M556.21,807.15c0.26-0.04,0.53-0.01,0.81,0.09c0.89,0.32,1.36,1.28,1.7,2.17c3.12,8.11,2.75,6.06,3.62,17.21
			c0.78-7.18,0.23-5.85,2.75-12.62c0.49-1.32,1.05-2.67,2.12-3.59c6.92-5.91,2.81,16.06,1.89,18.65c-3.4,9.61-12.4,13.29-22,11.48
			c-8.41-1.59-17.01-6.58-21.15-14.23c-0.37-0.69-0.71-1.58-0.25-2.22c0.31-0.44,0.89-0.59,1.43-0.67c4.8-0.77,9.7,0.95,13.87,3.46
			c4.17,2.51,7.81,5.8,11.8,8.58c2.83,1.97,8.21,0.97,11.66,0.84c5.86-0.22,7.77-2.81,12.29-6.54c0.99-0.81,2.08-1.59,3.35-1.77
			c1.26-0.19,2.73,0.39,3.16,1.59c0.26,0.72,0.12,1.51-0.09,2.24c-2.71,9.28-14.03,9.9-20.03,3.79c-5.73-5.83-10.49-16.28-9.5-24.52
			C553.84,809.43,554.79,807.34,556.21,807.15z"/>
		<path class="st2" d="M332.48,862.93c0.25,0.07,0.48,0.21,0.7,0.44c0.67,0.72,0.67,1.96,0.59,3.05
			c-0.75,10.06-0.18,7.69-4.32,20.06c3.89-7.39,2.8-6.2,8.08-12.4c1.03-1.21,2.14-2.43,3.51-2.96c8.91-3.41-4.55,18.47-6.53,20.87
			c-7.34,8.89-17.16,9.01-25.08,2.97c-6.95-5.3-12.56-14.33-12.94-24.32c-0.03-0.9,0.06-2,0.75-2.49c0.48-0.34,1.07-0.25,1.6-0.12
			c4.71,1.21,8.4,5.16,11.08,9.64c2.68,4.48,4.54,9.57,6.94,14.26c1.7,3.33,7.04,4.55,10.23,5.88c5.42,2.26,8.31,0.29,14.07-1.8
			c1.26-0.45,2.59-0.82,3.83-0.48s2.31,1.58,2.17,3.06c-0.08,0.88-0.56,1.68-1.07,2.37c-6.57,8.83-17.14,4.67-19.9-4.46
			c-2.63-8.71-2.33-21.99,2.21-30.43C329.31,864.38,331.1,862.54,332.48,862.93z"/>
		<g>
			<path class="st3" d="M410.2,895.44c-1.01,0-1.99-0.55-2.5-1.51l-83.01-158.87c-0.72-1.38-0.19-3.07,1.19-3.79
				c1.39-0.72,3.08-0.18,3.79,1.19l83.01,158.87c0.72,1.38,0.19,3.07-1.19,3.79C411.08,895.33,410.63,895.44,410.2,895.44z"/>
		</g>
		<g>
			<path class="st3" d="M368.69,820.41c-0.5,0-1-0.13-1.46-0.41l-60.7-36.98c-1.32-0.81-1.75-2.54-0.94-3.86
				c0.81-1.33,2.54-1.75,3.86-0.94l60.7,36.98c1.32,0.81,1.75,2.54,0.94,3.86C370.56,819.93,369.63,820.41,368.69,820.41z"/>
		</g>
		<g>
			<path class="st3" d="M345.86,773.02c-0.5,0-1-0.13-1.46-0.41l-60.71-36.98c-1.32-0.81-1.75-2.54-0.94-3.86s2.54-1.75,3.86-0.94
				l60.71,36.98c1.32,0.81,1.75,2.54,0.94,3.86C347.73,772.54,346.8,773.02,345.86,773.02z"/>
		</g>
		<g>
			<path class="st3" d="M385.86,853.26c-0.19,0-0.37-0.02-0.56-0.06c-1.52-0.31-2.5-1.79-2.2-3.31l11.71-57.56
				c0.31-1.52,1.8-2.5,3.32-2.19c1.52,0.31,2.5,1.79,2.2,3.31l-11.71,57.56C388.34,852.34,387.16,853.26,385.86,853.26z"/>
		</g>
	</g>
	<g id="Plant">
		<path class="st2" d="M1368.5,652.2c1.06-6.24,2.51-12.85,8.5-17.39c7.6-5.73,20.06-6.46,30.42-4.39
			c10.35,2.08,19.68,6.56,29.91,9.55c2.75,0.8,5.91,1.48,8.56,0.44c2.68-1.04,3.96-3.5,4.85-5.78c9.81-26.24-0.57-53.76-0.4-80.18
			c-0.07-7.19,0.86-15.13,5.88-21.28c13.03-16.91,18.19-7.75,30.17-26.36c8.37-13,10.15-37.38,24.53-45.88
			c29.73-17.59,29,47.74,31.14,62.72c4.05,28.42,43.51,26.98,36.05,61.43c-3.24,14.96-13.12,27.16-19.62,40.58
			c-6.4,13.47-8.49,31,4.48,41.32c8.45,6.72,23.26,10.53,24.41,20.34c0.66,5.78-4.45,10.39-9.36,14.15
			c-12.25,9.43-25.12,18.26-38.58,26.48c-3.4,2.08-7.02,4.29-8.21,7.51c-1.64,4.4,1.75,9.27,4.24,13.85
			c9.19,16.9,5.29,35.52-6.7,49.33c-11.9,13.83-30.97,23.49-50.7,31.74c-25.38,10.66-52.2,19.51-80.3,26.42
			c-82.44,16.67-53.93-46.48-50.42-69.26C1353.73,741.92,1360.78,696.79,1368.5,652.2z"/>
		<g>
			<path class="st3" d="M1418.7,833.74c-0.33,0-0.67-0.06-1.01-0.19c-1.45-0.55-2.17-2.18-1.62-3.63l94.87-247.83
				c0.55-1.45,2.17-2.19,3.63-1.62c1.45,0.55,2.17,2.18,1.62,3.63l-94.87,247.83C1420.89,833.05,1419.83,833.74,1418.7,833.74z"/>
		</g>
		<g>
			<path class="st3" d="M1472.62,692.7c-0.98,0-1.94-0.52-2.46-1.43l-16.77-29.87c-0.76-1.35-0.28-3.07,1.08-3.83
				c1.36-0.76,3.07-0.28,3.83,1.07l16.77,29.87c0.76,1.35,0.28,3.07-1.08,3.83C1473.56,692.58,1473.09,692.7,1472.62,692.7z"/>
		</g>
		<g>
			<path class="st3" d="M1486.42,657.72c-1.06,0-2.08-0.6-2.55-1.63c-0.65-1.41-0.04-3.08,1.37-3.73l31.1-14.36
				c1.4-0.65,3.08-0.04,3.73,1.37c0.65,1.41,0.04,3.08-1.37,3.73l-31.1,14.36C1487.22,657.63,1486.82,657.72,1486.42,657.72z"/>
		</g>
		<g>
			<g>
				<path class="st3" d="M1363.16,859.96c-7.43-0.99-14.8-2.06-20.69-6.62c-3.05-2.36-5.41-7.14-2.63-9.8
					c1.4-1.34,3.52-1.48,5.41-1.9c7.29-1.62,2.21-7.63-1.87-9.62c-7.19-3.5-15.66-5.91-19.98-12.64c-0.27-0.42-0.53-0.89-0.51-1.39
					c0.04-0.75,0.69-1.31,1.32-1.72c4.29-2.78,12.55-1.17,15.13-6.2c6.3-12.29-21.14-27.42-27.68-33.74
					c-1.25-1.21-2.56-2.52-2.91-4.22c-0.69-3.3,2.64-6.22,5.96-6.82c5.08-0.91,10.3,1.3,15.34-0.29c3.97-1.25,6.08-5.5,6.45-9.41
					c1.12-11.76-6.1-23.27-7.21-34.87c-0.91-9.49,2.95-28.41,16.3-25.9c6.11,1.15,8.92,8.03,11.6,13.64
					c2.49,5.2,5.81,10.97,9.97,14.97c3.05,2.93,7.2,5.01,11.42,4.63c8.19-0.75,17.89-8.82,19.96,4.29
					c0.63,4.02-0.22,8.11-0.09,12.17s1.62,8.55,5.29,10.31c6.68,3.21,23.6-7.94,24.65,5.16c0.27,3.28-1.05,6.45-2.15,9.55
					c-5.31,14.99,8.62,12.28,13.71,22.32c1.83,3.61,1.64,7.98,0.39,11.83c-2.01,6.18-6.29,11.52-9.12,17.34
					c-5.75,11.82-8.85,24.77-11.08,37.65c-1.63,9.45-1.55,27.38-14.13,29.42c-7.76,1.26-12-10.17-15.4-15.11
					C1383.99,863.39,1374.1,861.41,1363.16,859.96z"/>
				<path class="st2" d="M1404.77,891.03c-7.01,0-11.2-7.36-14.31-12.84c-0.77-1.35-1.48-2.61-2.15-3.58
					c-5.96-8.64-14.71-10.43-25.52-11.86l0,0c-7.22-0.96-15.41-2.05-22.04-7.18c-2.84-2.2-4.78-5.59-4.94-8.62
					c-0.11-2.14,0.61-4.01,2.09-5.43c1.73-1.66,3.93-2.07,5.7-2.4l1.05-0.21c1.04-0.23,1.48-0.53,1.56-0.62
					c-0.09-0.47-1.77-2.61-4.05-3.73c-1.49-0.73-3.04-1.41-4.6-2.09c-6.22-2.73-12.65-5.54-16.51-11.56
					c-0.31-0.48-1.02-1.59-0.95-3.06c0.07-1.54,0.95-2.86,2.59-3.93c2.21-1.43,4.89-1.9,7.49-2.35c3.59-0.63,5.83-1.12,6.67-2.77
					c3.76-7.33-10.91-18.13-19.68-24.58c-3.12-2.3-5.81-4.28-7.45-5.86c-1.34-1.29-3.17-3.06-3.71-5.67
					c-0.41-1.96,0.01-3.94,1.21-5.71c1.51-2.24,4.2-3.94,7.01-4.45c2.69-0.48,5.23-0.23,7.7,0.01c2.61,0.25,5.07,0.49,7.29-0.21
					c2.74-0.86,4.23-4.13,4.5-7c0.59-6.23-1.4-12.48-3.51-19.1c-1.58-4.94-3.2-10.04-3.7-15.23c-0.64-6.6,0.9-19.41,7.73-25.65
					c3.27-2.99,7.38-4.12,11.88-3.27c7.08,1.33,10.38,8.33,13.03,13.96l0.58,1.23c3.02,6.31,6.18,11.07,9.39,14.16
					c2.84,2.73,6.23,4.14,9.21,3.86c1.89-0.17,4.05-0.85,6.13-1.51c4.23-1.33,8.6-2.7,12.23-0.45c2.44,1.51,3.95,4.33,4.63,8.61
					c0.43,2.73,0.26,5.38,0.1,7.94c-0.1,1.53-0.2,3.06-0.15,4.59c0.09,2.99,1.11,6.62,3.7,7.87c1.61,0.78,5.27,0.05,8.49-0.59
					c5.16-1.03,10.49-2.1,14.25,0.74c2.05,1.55,3.23,4.01,3.49,7.31c0.29,3.53-0.9,6.82-1.95,9.72l-0.36,1
					c-2.52,7.13-0.35,8.46,4.41,11.37c3.06,1.87,6.86,4.2,9.16,8.74c2.01,3.96,2.2,8.92,0.55,13.97c-1.34,4.1-3.55,7.78-5.68,11.34
					c-1.31,2.18-2.54,4.24-3.58,6.37c-6.13,12.61-9.01,26.34-10.83,36.9c-0.25,1.47-0.46,3.15-0.69,4.94
					c-1.24,9.85-3.11,24.73-15.76,26.77C1405.89,890.99,1405.32,891.03,1404.77,891.03z M1363.52,857.17
					c11.36,1.51,22.16,3.73,29.41,14.25c0.75,1.09,1.55,2.49,2.41,4c3.3,5.81,6.37,10.53,10.23,9.93
					c7.86-1.27,9.67-10.68,11.08-21.93c0.23-1.89,0.46-3.65,0.72-5.19c1.89-10.93,4.89-25.17,11.32-38.41
					c1.15-2.35,2.5-4.61,3.82-6.8c2.06-3.44,4.01-6.69,5.16-10.19c1.16-3.58,1.08-7.11-0.22-9.69c-1.58-3.12-4.25-4.76-7.08-6.49
					c-4.82-2.95-10.81-6.62-6.77-18.04l0.37-1.04c0.94-2.59,1.82-5.04,1.63-7.35c-0.14-1.64-0.56-2.75-1.28-3.29
					c-1.75-1.31-6-0.46-9.77,0.29c-4.48,0.89-8.71,1.74-12.03,0.15c-4.12-1.98-6.69-6.75-6.88-12.76c-0.05-1.7,0.05-3.41,0.16-5.12
					c0.15-2.36,0.29-4.59-0.04-6.7c-0.39-2.5-1.1-4.13-2.03-4.71c-1.46-0.91-4.58,0.08-7.58,1.03c-2.37,0.74-4.82,1.52-7.31,1.74
					c-4.64,0.4-9.6-1.54-13.62-5.4c-3.75-3.6-7.2-8.76-10.56-15.78l-0.59-1.26c-2.33-4.93-4.74-10.03-8.99-10.83
					c-2.8-0.52-5.08,0.1-7.05,1.9c-4.98,4.55-6.48,15.2-5.93,20.97c0.44,4.59,1.91,9.19,3.46,14.06c2.19,6.86,4.45,13.96,3.75,21.34
					c-0.41,4.36-2.86,10.08-8.41,11.83c-3.31,1.05-6.48,0.74-9.52,0.45c-2.19-0.21-4.25-0.41-6.17-0.07
					c-1.33,0.24-2.67,1.06-3.34,2.06c-0.51,0.75-0.4,1.25-0.36,1.42c0.19,0.91,1.26,1.95,2.12,2.78c1.37,1.32,3.92,3.2,6.88,5.38
					c10.87,8,27.29,20.08,21.35,31.67c-2.18,4.26-6.91,5.08-10.71,5.74c-1.83,0.32-3.73,0.65-4.99,1.29
					c3.14,4.31,8.26,6.56,13.66,8.92c1.62,0.71,3.25,1.42,4.8,2.18c3.01,1.47,7.6,5.38,7.1,9.63c-0.18,1.52-1.18,4.22-5.85,5.25
					c-0.4,0.09-0.81,0.17-1.23,0.25c-1.2,0.23-2.33,0.44-2.86,0.94c-0.2,0.19-0.4,0.47-0.37,1.08c0.07,1.38,1.27,3.31,2.77,4.48
					C1349.62,855.33,1356.69,856.26,1363.52,857.17L1363.52,857.17z"/>
			</g>
			<g>
				<g>
					<line class="st3" x1="1365.35" y1="755.24" x2="1414.15" y2="890.27"/>
					<path class="st2" d="M1414.15,893.08c-1.15,0-2.23-0.71-2.64-1.86l-48.8-135.03c-0.53-1.46,0.23-3.07,1.69-3.6
						c1.46-0.52,3.07,0.23,3.6,1.69l48.8,135.03c0.53,1.46-0.23,3.07-1.69,3.6C1414.79,893.03,1414.47,893.08,1414.15,893.08z"/>
				</g>
				<g>
					<line class="st3" x1="1381.05" y1="796.37" x2="1389.11" y2="767.93"/>
					<path class="st2" d="M1381.05,799.18c-0.25,0-0.51-0.03-0.76-0.11c-1.5-0.42-2.36-1.98-1.94-3.47l8.06-28.44
						c0.42-1.49,1.98-2.36,3.47-1.94c1.5,0.42,2.36,1.98,1.94,3.47l-8.06,28.44C1383.41,798.37,1382.28,799.18,1381.05,799.18z"/>
				</g>
				<g>
					<line class="st3" x1="1399.25" y1="845.14" x2="1407.31" y2="816.71"/>
					<path class="st2" d="M1399.25,847.95c-0.25,0-0.51-0.03-0.76-0.11c-1.5-0.42-2.36-1.98-1.94-3.47l8.06-28.44
						c0.42-1.49,1.98-2.36,3.47-1.94c1.5,0.42,2.36,1.98,1.94,3.47l-8.06,28.44C1401.61,847.15,1400.48,847.95,1399.25,847.95z"/>
				</g>
				<g>
					<line class="st3" x1="1388.12" y1="823.04" x2="1360.37" y2="814.63"/>
					<path class="st2" d="M1388.12,825.85c-0.27,0-0.55-0.04-0.82-0.12l-27.76-8.41c-1.49-0.45-2.32-2.02-1.87-3.51
						c0.45-1.49,2.02-2.33,3.51-1.87l27.76,8.41c1.49,0.45,2.32,2.02,1.87,3.51C1390.44,825.07,1389.33,825.85,1388.12,825.85z"/>
				</g>
			</g>
		</g>
		<path class="st5" d="M1065.09,797.13c0.26,0.01,0.52,0.07,0.79,0.22c0.83,0.45,1.14,1.48,1.34,2.41c1.81,8.5,1.76,6.42,0.86,17.57
			c1.9-6.96,1.15-5.74,4.7-12.03c0.69-1.22,1.46-2.47,2.66-3.21c7.76-4.75,0.25,16.3-1.07,18.72c-4.87,8.96-14.34,11.18-23.53,7.88
			c-8.06-2.9-15.76-9.17-18.65-17.38c-0.26-0.74-0.45-1.67,0.1-2.23c0.38-0.39,0.98-0.44,1.52-0.44c4.87-0.01,9.43,2.47,13.15,5.6
			s6.8,6.96,10.3,10.33c2.48,2.39,7.96,2.25,11.38,2.67c5.82,0.7,8.12-1.55,13.17-4.53c1.1-0.65,2.3-1.24,3.58-1.23
			c1.28,0.01,2.63,0.82,2.87,2.07c0.14,0.75-0.12,1.51-0.44,2.2c-4.14,8.74-15.41,7.57-20.38,0.59c-4.74-6.65-7.79-17.73-5.52-25.71
			C1062.38,799.01,1063.65,797.1,1065.09,797.13z"/>
		<path class="st4" d="M1303.04,903.96c7.05-7.26,12.86-14.61,21.52-20.16c2.92-1.87,6.33-3.6,9.68-2.72
			c0.63,0.17,1.3,0.47,1.59,1.08c0.26,0.53,0.17,1.16,0.06,1.74c-7.46,37.06-54,21.24-54.55-11.96c-0.03-2.06,0.13-4.23,1.24-5.91
			c2.04-3.08,6.67-3.27,9.71-1.2c3.04,2.07,4.73,5.73,5.72,9.36c2.62,9.6,1.35,19.78,0.05,29.61c1.26-13.01,6.51-25.53,14.81-35.27
			c1.25-1.46,3.27-2.96,4.83-1.83c0.75,0.54,1.06,1.52,1.26,2.44c1.47,6.6-0.31,13.59-3.54,19.41
			C1312.21,894.37,1307.62,899.22,1303.04,903.96z"/>
		<path class="st5" d="M1573.15,846.26c4.39-6.86,8.17-14.81,9.14-23.7c0.23-2.15,0.26-4.52-0.72-6.26
			c-0.85-1.51-2.28-2.22-3.67-2.61c-9.86-2.78-19.11,6.75-26.22,16.18c-12.57,16.66-23.79,35.09-33.41,54.88
			c5.76-11.84,8.79-34.55,7.42-48.47c-0.05-0.55-0.14-1.14-0.46-1.49c-0.33-0.35-0.8-0.33-1.22-0.23c-3.03,0.77-4.94,4.66-6.4,8.26
			c-4.5,11.15-8.41,24.03-11.02,36.54c1.64-7.86-3.21-17.32-7.61-22c-7.87-8.37-6.19,3.31-4.48,10.17
			c1.67,6.73,12.8,33.05,20.73,27.17c1.45-1.08,1.81-6.96,3-8.85c2.08-3.28,4.97-4.36,7.95-5.58c8-3.28,16.33-4.63,23.85-9.79
			C1558.82,864.46,1566.76,856.25,1573.15,846.26z"/>
	</g>
</g>
</svg>
