<svg xmlns="http://www.w3.org/2000/svg" xmlns:xlink="http://www.w3.org/1999/xlink" viewBox="0 0 950 500"><defs><style>.cls-1,.cls-25,.cls-6{fill:none;}.cls-2,.cls-9{fill:#f8eee2;}.cls-2,.cls-22,.cls-24,.cls-25{stroke:#090909;stroke-linecap:round;stroke-linejoin:round;}.cls-3{clip-path:url(#clip-path);}.cls-4{opacity:0.16;}.cls-5,.cls-7,.cls-8{fill:#fff;}.cls-6{stroke:#fff;stroke-miterlimit:10;}.cls-6,.cls-7{opacity:0.33;}.cls-8{opacity:0.14;}.cls-10{opacity:0.59;}.cls-11{font-size:61.91px;font-family:Montserrat-ExtraBold, Montserrat;font-weight:800;}.cls-11,.cls-18{fill:#090909;}.cls-12{letter-spacing:-0.01em;}.cls-13{letter-spacing:-0.01em;}.cls-14{font-size:32.42px;font-family:BigShouldersDisplay-Medium, BigShouldersDisplay Medium;font-weight:500;letter-spacing:0.27em;}.cls-14,.cls-20,.cls-24{fill:#ff8d1d;}.cls-15{letter-spacing:0.2em;}.cls-16{letter-spacing:0.19em;}.cls-17{letter-spacing:0.23em;}.cls-19{fill:#708cf5;}.cls-21,.cls-22{fill:#fff9f3;}.cls-23{clip-path:url(#clip-path-3);}</style><clipPath id="clip-path"><rect class="cls-1" width="950" height="500" transform="translate(950 500) rotate(180)"/></clipPath><clipPath id="clip-path-3"><ellipse class="cls-2" cx="428.89" cy="129.88" rx="12.95" ry="53.37" transform="translate(-15.84 74.86) rotate(-9.79)"/></clipPath></defs><g id="BACKGROUND"><g class="cls-3"><g class="cls-4"><path class="cls-5" d="M-35.51,70C-37,116.13-20.8,155.75,3.6,178.08c4.57,4.18,7.55,11.08,8.15,18.73,0,.41.07.83.1,1.24,4.48,50.65,38,86.23,73.69,79.37,34.15-6.56,58.73-32.05,55.1-81.13q0-.34-.06-1c-.63-13.37,6.8-24.62,16.26-24.94a51.06,51.06,0,0,0,6-.54c40.73-6,70.28-57.72,65.94-115.45-2-26.4-10.8-49.53-23.69-66.23H-7.27C-23.41,10-34.56,40.23-35.51,70Z"/></g><g class="cls-4"><path class="cls-5" d="M9.66,42.06c-1,30.38,9.69,56.47,25.76,71.18,3,2.75,5,7.29,5.37,12.33l.06.82c2.95,33.35,25,56.79,48.53,52.27,22.49-4.32,38.68-21.11,36.29-53.43,0-.15,0-.37,0-.65-.41-8.81,4.48-16.22,10.71-16.43a35.14,35.14,0,0,0,3.94-.35c26.83-4,46.3-38,43.44-76-1.31-17.39-7.12-32.62-15.61-43.62H28.26A99.12,99.12,0,0,0,9.66,42.06Z"/></g><path class="cls-6" d="M451.23,232.92h0c4.47-23.1-9.08-47-32.47-57.41h0c-35.84-15.86-44.8-60.31-16.89-83.76h0c18.21-15.3,21.69-41.29,8.33-62.26h0c-20.47-32.13-.31-71.35,38-73.91h0c25-1.67,44.18-19.76,45.95-43.34h0c2.71-36.12,44.3-55.14,78.37-35.83h0c22.23,12.6,49.78,9.32,66-7.86h0c24.87-26.32,72-17.86,88.81,15.94h0c11,22.06,36.38,34.84,60.87,30.62h0c37.52-6.46,72.18,26.23,65.33,61.61h0C849.06-.18,862.61,23.78,886,34.13h0c35.84,15.86,44.8,60.31,16.89,83.76h0c-18.21,15.3-21.69,41.29-8.33,62.26h0c20.47,32.13.31,71.35-38,73.91h0c-25,1.67-44.18,19.76-46,43.34h0c-2.71,36.12-44.3,55.14-78.37,35.83h0c-22.23-12.6-49.79-9.32-66,7.86h0c-24.87,26.32-72,17.86-88.81-15.94h0c-11-22.06-36.38-34.84-60.87-30.62h0C479,301,444.38,268.3,451.23,232.92Z"/><path class="cls-7" d="M446.05,161.44h0c4.76-24.57-9.65-50-34.53-61.06h0c-38.13-16.88-47.66-64.16-18-89.1h0C412.92-5,416.62-32.65,402.41-54.95h0c-21.78-34.18-.34-75.9,40.41-78.63h0c26.59-1.78,47-21,48.88-46.1h0c2.89-38.43,47.12-58.65,83.36-38.11h0c23.66,13.4,53,9.91,70.23-8.36h0c26.45-28,76.58-19,94.47,17h0c11.68,23.47,38.7,37.06,64.74,32.57h0c39.91-6.87,76.79,27.91,69.5,65.55h0C869.24-86.52,883.66-61,908.54-50h0c38.12,16.87,47.66,64.15,18,89.1h0c-19.38,16.28-23.08,43.92-8.86,66.23h0c21.77,34.18.33,75.9-40.42,78.62h0c-26.59,1.78-47,21-48.88,46.1h0c-2.88,38.43-47.12,58.66-83.36,38.12h0c-23.65-13.41-53-9.92-70.22,8.35h0c-26.45,28-76.58,19-94.48-16.95h0c-11.67-23.46-38.69-37.06-64.74-32.57h0C475.64,233.86,438.76,199.08,446.05,161.44Z"/><path class="cls-8" d="M44,784.4h0c4.54-23.49-9.24-47.85-33-58.38h0c-36.45-16.13-45.56-61.33-17.18-85.18h0c18.52-15.56,22.06-42,8.47-63.31h0c-20.82-32.68-.32-72.56,38.64-75.16h0c25.42-1.7,44.92-20.1,46.72-44.07h0c2.76-36.74,45.05-56.07,79.7-36.44h0c22.61,12.81,50.62,9.48,67.13-8h0c25.28-26.77,73.21-18.17,90.31,16.2h0c11.16,22.44,37,35.43,61.9,31.14h0c38.15-6.57,73.4,26.68,66.43,62.66h0c-4.55,23.48,9.23,47.85,33,58.38h0c36.45,16.13,45.56,61.32,17.18,85.17h0c-18.52,15.57-22.06,42-8.47,63.32h0c20.82,32.67.32,72.56-38.64,75.16h0C430.75,807.6,411.25,826,409.45,850h0c-2.76,36.74-45.05,56.07-79.7,36.44h0c-22.61-12.82-50.63-9.48-67.13,8h0c-25.29,26.77-73.21,18.17-90.31-16.21h0c-11.17-22.43-37-35.43-61.9-31.14h0C72.26,853.63,37,820.38,44,784.4Z"/><path class="cls-6" d="M69.6,812.56h0c4-20.61-8.11-42-29-51.23h0c-32-14.16-40-53.84-15.08-74.77h0C41.79,672.9,44.9,649.71,33,631h0c-18.27-28.68-.28-63.69,33.92-66h0c22.31-1.5,39.43-17.64,41-38.68h0c2.42-32.25,39.54-49.22,69.95-32h0c19.84,11.25,44.44,8.32,58.92-7h0C259,463.84,301,471.39,316,501.56h0c9.8,19.69,32.48,31.1,54.33,27.33h0c33.49-5.77,64.43,23.42,58.31,55h0c-4,20.61,8.11,42,29,51.24h0c32,14.16,40,53.83,15.08,74.76h0c-16.25,13.66-19.36,36.86-7.43,55.57h0c18.27,28.69.28,63.69-33.91,66h0c-22.32,1.49-39.44,17.63-41,38.68h0c-2.42,32.24-39.54,49.22-69.95,32h0c-19.84-11.25-44.44-8.32-58.92,7h0c-22.2,23.5-64.26,15.95-79.27-14.22h0c-9.8-19.69-32.47-31.1-54.33-27.33h0C94.42,873.33,63.48,844.15,69.6,812.56Z"/><g class="cls-4"><path class="cls-5" d="M903.78,429.4c1.6-40.09-16.14-74.53-42.92-93.94a22.85,22.85,0,0,1-8.94-16.28c0-.36-.07-.72-.11-1.08-4.91-44-41.68-75-80.85-69-37.46,5.71-64.43,27.86-60.45,70.52,0,.2,0,.49.06.86.7,11.63-7.46,21.4-17.83,21.68-2.18.06-4.37.21-6.57.47-44.7,5.23-77.12,50.17-72.36,100.35,2.17,22.95,11.85,43.05,26,57.57h233C890.5,481.59,902.74,455.28,903.78,429.4Z"/></g><g class="cls-4"><path class="cls-5" d="M926.9,515c.82-25.78-8.22-47.91-21.85-60.39-2.55-2.33-4.22-6.18-4.55-10.46l-.06-.69c-2.5-28.3-21.23-48.18-41.17-44.35-19.08,3.67-32.81,17.91-30.78,45.33,0,.13,0,.32,0,.55.35,7.48-3.8,13.76-9.08,13.94a27.24,27.24,0,0,0-3.35.3c-22.76,3.36-39.27,32.25-36.85,64.5,1.11,14.75,6,27.67,13.24,37H911.12A84.08,84.08,0,0,0,926.9,515Z"/></g><rect class="cls-9" width="950" height="500" transform="translate(950 500) rotate(180)"/></g><g class="cls-10"><g class="cls-3"><path class="cls-5" d="M495.08,720.06c-23.59,0-45.16-9.21-59.19-25.26-14.49-16.6-18.28-37.28-10.39-56.73l.43-1c7.81-18.76-4.07-35-16.65-52.19C403.64,577.13,397.8,569.16,394,561c-10.26-21.83-14.56-49.5-11.77-75.92,3.77-35.84,22.4-69.83,51.1-93.26,42.27-34.49,109.55-49.1,180-39.08,6.46.92,13,2,19.32,3.1,19.13,3.25,38.91,6.61,58.78,5.07,29.55-2.29,56.86-15.06,83.28-27.41,8.07-3.78,16.41-7.68,24.68-11.22,53.25-22.77,108.16-30.83,154.61-22.71,61.27,10.73,106.1,50.79,111.55,99.69,1.16,10.42-3.37,24-8.17,38.45-5.71,17.18-11.62,34.94-7.14,46.83,2.47,6.54,9.5,17,18.4,30.22,21.31,31.68,50.5,75.06,49.44,111.38-1.44,49.11-14.57,66.31-32.75,90.11l-2.73,3.59-1.1-.57,2.74-3.58c18.07-23.66,31.12-40.76,32.54-89.57,1-36-28-79.27-49.27-110.84-8.94-13.28-16-23.78-18.5-30.43-4.6-12.18,1.36-30.09,7.13-47.42,4.76-14.32,9.26-27.85,8.12-38.07-5.4-48.43-49.82-88.12-110.53-98.74-46.16-8.08-100.75,0-153.74,22.61-8.25,3.53-16.59,7.42-24.65,11.19-26.53,12.41-54,25.24-83.79,27.55-20.07,1.55-39.94-1.82-59.16-5.08-6.31-1.08-12.84-2.19-19.28-3.1-70-10-136.86,4.54-178.84,38.79-28.49,23.25-47,57-50.72,92.6-2.77,26.26,1.49,53.76,11.69,75.43,3.81,8.1,9.61,16,15.23,23.71,12.18,16.64,24.77,33.85,16.76,53.09l-.42,1c-7.76,19.12-4,39.45,10.21,55.77C450.72,710,471.91,719,495.08,719Z"/><path class="cls-5" d="M569.55,720.06c-16.75,0-32.06-6.69-42-18.34-10.29-12.06-13-27.07-7.38-41.19l.3-.75c5.51-13.51-2.88-25.23-11.76-37.63-4-5.59-8.13-11.36-10.86-17.3-7.27-15.81-10.31-35.86-8.34-55a102.52,102.52,0,0,1,36.21-67.57c29.95-25,77.61-35.58,127.49-28.32,4.57.66,9.2,1.47,13.68,2.24,13.51,2.35,27.49,4.78,41.53,3.67,20.86-1.66,40.17-10.89,58.84-19.82,5.71-2.73,11.61-5.55,17.46-8.11,37.72-16.49,76.61-22.34,109.51-16.45,43.43,7.78,75.21,36.82,79.08,72.27.82,7.57-2.39,17.43-5.79,27.88-4,12.4-8.21,25.23-5,33.79,1.74,4.72,6.71,12.27,13,21.84,15.08,22.93,35.75,54.34,35,80.66-1,35.58-10.32,48-23.2,65.28l-1.93,2.59-1.1-.58,1.94-2.59c12.76-17.1,22-29.45,23-64.72.74-26-19.82-57.29-34.83-80.11-6.33-9.63-11.33-17.22-13.11-22-3.27-8.86,1-21.84,5-34.4,3.37-10.35,6.55-20.12,5.75-27.49-3.82-35-35.18-63.63-78.06-71.3-32.61-5.84-71.19,0-108.64,16.35-5.83,2.55-11.73,5.37-17.43,8.09-18.78,9-38.21,18.28-59.35,19.95-14.24,1.13-28.31-1.31-41.91-3.68-4.47-.77-9.09-1.58-13.64-2.24-49.47-7.2-96.71,3.28-126.36,28A101.52,101.52,0,0,0,490.78,550c-1.95,19,1.06,38.85,8.26,54.51,2.69,5.85,6.79,11.58,10.76,17.13,8.64,12.07,17.58,24.55,11.88,38.54l-.3.74c-5.47,13.79-2.85,28.45,7.2,40.21,9.71,11.37,24.64,17.89,41,17.89Z"/><path class="cls-5" d="M506.16-281.35c23.35-3.35,46,2.7,62.17,16.6,16.7,14.37,23.39,34.3,18.34,54.68l-.28,1.09c-5.07,19.68,9,34.07,23.89,49.3,6.68,6.83,13.59,13.89,18.56,21.45,13.26,20.15,21.44,46.93,22.43,73.48,1.36,36-12.26,72.31-37.34,99.57C577,75,512.46,99,441.32,99.06c-6.51,0-13.15-.17-19.56-.33-19.39-.51-39.45-1-58.9,3.32-28.93,6.47-54.15,23-78.54,39-7.45,4.88-15.16,9.93-22.84,14.6C212,185.72,158.79,201.49,111.66,200,49.49,198.12-.58,164.83-12.92,117.2-15.55,107.05-13,92.93-10.29,78c3.22-17.82,6.55-36.24.42-47.37-3.37-6.12-11.81-15.47-22.5-27.31C-58-25-93-63.83-97.12-99.93c-5.55-48.81,5-67.7,19.62-93.85l2.2-3.93,1.16.4-2.19,3.94c-14.53,26-25,44.76-19.5,93.28,4.07,35.81,39,74.48,64.5,102.72C-20.59,14.51-12.12,23.9-8.69,30.13c6.28,11.4,2.92,30-.33,48-2.68,14.85-5.22,28.88-2.64,38.84C.57,164.09,50.17,197.07,111.78,199c46.83,1.45,99.74-14.26,149-44.21,7.67-4.66,15.36-9.7,22.81-14.58,24.5-16,49.83-32.64,79-39.16,19.65-4.39,39.8-3.87,59.28-3.37,6.4.17,13,.34,19.52.33,70.72-.07,134.84-23.92,171.53-63.78C637.82,7.14,651.33-28.89,650-64.66c-1-26.39-9.12-53-22.29-73-4.92-7.48-11.79-14.51-18.44-21.31-14.42-14.74-29.33-30-24.13-50.17l.27-1.08c5-20-1.6-39.62-18-53.75-15.88-13.66-38.14-19.61-61.07-16.32Z"/><path class="cls-5" d="M432.43-270.78c16.58-2.38,32.7,2.07,44.21,12.19,11.9,10.47,16.69,24.95,13.15,39.72l-.2.79c-3.52,14.15,6.44,24.56,17,35.58,4.75,5,9.66,10.09,13.2,15.58,9.45,14.62,15.3,34,16.07,53.26a102.59,102.59,0,0,1-26.25,72C483.5-12.64,437.82,4.6,387.42,4.5c-4.62,0-9.32-.15-13.86-.28-13.71-.41-27.89-.82-41.63,2.27-20.42,4.6-38.22,16.47-55.43,28C271.24,38,265.79,41.6,260.36,45c-35,21.68-72.66,33-106.06,31.82C110.2,75.26,74.63,51,65.77,16.48c-1.89-7.37-.12-17.6,1.77-28.42,2.23-12.85,4.54-26.14.2-34.16-2.39-4.42-8.38-11.2-16-19.77C33.58-86.43,8.67-114.59,5.68-140.76c-4-35.35,3.39-49,13.69-67.9l1.55-2.85,1.16.42-1.54,2.85C10.33-189.51,3-176,7-140.91,9.92-115,34.71-87,52.82-66.56c7.63,8.63,13.65,15.44,16.1,20,4.5,8.31,2.16,21.76-.11,34.77C67-1.11,65.19,9,67,16.19c8.74,34.08,43.86,58,87.38,59.51,33.11,1.15,70.48-10.08,105.23-31.61,5.41-3.35,10.84-7,16.1-10.49C293.06,22,311,10.09,331.66,5.43c13.93-3.14,28.2-2.72,42-2.31,4.53.14,9.22.28,13.81.29,50,.1,95.27-17,121.11-45.68a101.54,101.54,0,0,0,26-71.3c-.76-19.07-6.56-38.31-15.92-52.79-3.49-5.41-8.36-10.5-13.08-15.43-10.27-10.72-20.88-21.81-17.23-36.46l.19-.78c3.46-14.43-1.22-28.56-12.83-38.78-11.23-9.87-26.94-14.21-43.1-11.89Z"/></g></g><rect class="cls-1" x="25" width="900" height="500" transform="translate(950 500) rotate(180)"/></g><g id="OBJECTS"><text class="cls-11" transform="translate(405.43 271.31)"><tspan class="cls-12">C</tspan><tspan x="42.04" y="0">OMING S</tspan><tspan class="cls-13" x="317.92" y="0">O</tspan><tspan x="367.21" y="0">ON</tspan></text><text class="cls-14" transform="translate(510.29 315.69)">S<tspan class="cls-15" x="24.77" y="0">T</tspan><tspan class="cls-16" x="47.23" y="0">A</tspan><tspan x="73.3" y="0">Y</tspan><tspan class="cls-17" x="99.62" y="0"> </tspan><tspan x="113.95" y="0">TUNED</tspan></text><rect class="cls-18" x="108.5" y="475.88" width="181.8" height="24.32"/><path class="cls-19" d="M322.27,319.91a6.44,6.44,0,0,0,5.94-9.3l-33.88-68.37a43,43,0,0,0-2.47-5h0A42.63,42.63,0,0,0,257.33,216l-96-5.4,0,0h-1.18l-15.9.3c-27.79.53-52.84,18.53-60.52,45.24-.31,1.07-.59,2.16-.85,3.27L63,327a7.47,7.47,0,0,0,6.79,9.57l47.81,2.41L102.18,466.67a8.42,8.42,0,0,0,8.35,9.42H291.66a7.34,7.34,0,0,0,7.34-7.45l-.07-149.39Z"/><path class="cls-18" d="M291.66,476.59H110.53a8.9,8.9,0,0,1-8.84-10L117,339.41,69.73,337a8,8,0,0,1-7.24-10.21L82.4,259.28c.24-1.07.53-2.18.84-3.26,7.56-26.31,32.64-45.06,61-45.6l16-.3h1.06a.48.48,0,0,1,.23.05l95.82,5.39A43.12,43.12,0,0,1,292.29,237a44,44,0,0,1,2.5,5.06l33.87,68.35a6.94,6.94,0,0,1-6.4,10h0l-22.83-.64.07,148.87a7.85,7.85,0,0,1-7.84,7.95ZM160.43,211.11h-.29l-15.89.3c-27.91.54-52.6,19-60,44.87-.3,1.07-.59,2.16-.84,3.25L63.45,327.1A7,7,0,0,0,69.78,336l47.82,2.41a.54.54,0,0,1,.36.18.58.58,0,0,1,.11.38L102.68,466.73a7.91,7.91,0,0,0,7.85,8.86H291.66a6.85,6.85,0,0,0,6.84-6.94l-.07-149.4a.55.55,0,0,1,.15-.36.53.53,0,0,1,.37-.14l23.33.66a5.82,5.82,0,0,0,5.17-2.74,5.89,5.89,0,0,0,.31-5.84l-33.88-68.37a42.23,42.23,0,0,0-36.58-25.92l-96-5.4a.53.53,0,0,1-.17,0h-.72Z"/><path class="cls-9" d="M351,258.05c5.87-10.76,7.87-23.75,2.6-35.16l-6.76,2.46s-6.46-18.62-7.5-32.21c-2.6-4.63-21.37,5.13-21.37,5.13l2.79-7.62c1-2.69,2-5.55,1.4-8.36s-3.47-5.32-6.19-4.43-7.76,12-9.36,14.6c-9.63,15.74-9.51,36.32-7.82,54.12.9,9.48-3.39,107.12-1.75,111.46,9.89,26.17,46.72,26.71,57.35.82h0a71.2,71.2,0,0,0,2.33-15.52c.26-7.06-11.44-70.22-11.62-72.36-.25-3,1.17-5.65,2.82-8.16C349,261.19,350.17,259.62,351,258.05Z"/><path class="cls-18" d="M326,378.48h-.49a30.76,30.76,0,0,1-28.86-20.25c-.87-2.31-.25-26,.8-61.86.68-23.4,1.33-45.5.92-49.74-1.59-16.73-2.13-38,7.9-54.42.38-.63,1-1.8,1.7-3.16,3-5.76,5.88-11,7.92-11.66a4.52,4.52,0,0,1,3.71.48,6.73,6.73,0,0,1,3.13,4.33c.64,3-.5,6.14-1.42,8.64l-2.36,6.42c4.41-2.2,18.45-8.74,20.9-4.36a.48.48,0,0,1,.07.21c.93,12.17,6.3,28.6,7.31,31.61l6.28-2.29a.5.5,0,0,1,.62.26c4.9,10.6,3.95,23.58-2.61,35.61-.61,1.12-1.38,2.25-2.13,3.35-.32.48-.65,1-1,1.45-1.81,2.76-3,5.15-2.74,7.85.05.55.92,5.51,2.13,12.37,3.39,19.16,9.68,54.81,9.49,60.05A71.84,71.84,0,0,1,354.91,359,30.77,30.77,0,0,1,326,378.48Zm-8.81-200.3a3.16,3.16,0,0,0-1,.15c-1.83.6-5.42,7.48-7.35,11.17-.75,1.43-1.34,2.56-1.74,3.22-9.87,16.13-9.33,37.23-7.75,53.81.41,4.3-.24,26.43-.92,49.86-.81,27.74-1.73,59.18-.86,61.47a30.32,30.32,0,0,0,56.42.81,71.06,71.06,0,0,0,2.29-15.35c.19-5.13-6.09-40.72-9.47-59.83-1.26-7.15-2.1-11.87-2.15-12.47-.26-3.15,1.24-5.94,2.9-8.48.32-.49.66-1,1-1.46.77-1.13,1.49-2.19,2.08-3.27h0c6.33-11.59,7.33-24.06,2.77-34.29l-6.32,2.3a.46.46,0,0,1-.38,0,.51.51,0,0,1-.26-.28c-.06-.19-6.46-18.73-7.52-32.23-1.9-2.88-13.63,1.77-20.65,5.42a.5.5,0,0,1-.56-.07.49.49,0,0,1-.14-.55l2.79-7.61c.88-2.38,2-5.34,1.38-8.08a5.78,5.78,0,0,0-2.65-3.68A3.92,3.92,0,0,0,317.14,178.18Z"/><polygon class="cls-18" points="314.27 208.7 331.75 226.12 344.81 200.75 342.02 189.22 318.29 198.04 314.27 208.7"/><path class="cls-20" d="M342,235h0a8.59,8.59,0,0,1-9.93-7l-7.89-45.72a8.59,8.59,0,0,1,7-9.93h0a8.59,8.59,0,0,1,9.93,7L349,225.07A8.58,8.58,0,0,1,342,235Z"/><path class="cls-18" d="M340.52,235.63a9.11,9.11,0,0,1-8.94-7.55l-7.89-45.72a9.09,9.09,0,1,1,17.91-3.09L349.5,225a9.14,9.14,0,0,1-9,10.64Zm-7.86-62.91a8.16,8.16,0,0,0-1.39.12,8.09,8.09,0,0,0-6.6,9.35l7.89,45.72a8.09,8.09,0,0,0,9.36,6.6h0a8.1,8.1,0,0,0,6.59-9.35l-7.89-45.72a8.09,8.09,0,0,0-8-6.72Z"/><rect class="cls-21" x="317.26" y="165.24" width="28.27" height="15.77" rx="6.1" transform="translate(-24.62 58.9) rotate(-9.79)"/><path class="cls-18" d="M323.77,182.86a6.62,6.62,0,0,1-6.5-5.48l-.61-3.53a6.61,6.61,0,0,1,5.38-7.62l15.84-2.73a6.6,6.6,0,0,1,7.62,5.37l.61,3.54a6.6,6.6,0,0,1-5.37,7.62h0l-15.85,2.73A6.06,6.06,0,0,1,323.77,182.86ZM339,164.4a6.22,6.22,0,0,0-1,.08l-15.84,2.74a5.59,5.59,0,0,0-4.56,6.46l.61,3.53a5.6,5.6,0,0,0,6.46,4.57L340.57,179a5.6,5.6,0,0,0,4.56-6.46l-.61-3.54A5.61,5.61,0,0,0,339,164.4Zm1.64,15.13h0Z"/><path class="cls-9" d="M292.43,150.07h4.68a0,0,0,0,1,0,0v9.15a0,0,0,0,1,0,0h-4.68a4.14,4.14,0,0,1-4.14-4.14v-.86a4.14,4.14,0,0,1,4.14-4.14Z" transform="translate(-22.04 52.04) rotate(-9.79)"/><path class="cls-18" d="M292.5,159.76a4.65,4.65,0,0,1-4.57-3.86l-.14-.85a4.64,4.64,0,0,1,3.78-5.36l4.62-.8a.49.49,0,0,1,.37.09.46.46,0,0,1,.2.32l1.56,9a.55.55,0,0,1-.08.38.5.5,0,0,1-.33.2l-4.61.8A5.52,5.52,0,0,1,292.5,159.76Zm3.36-9.8-4.12.71a3.65,3.65,0,0,0-3,4.21l.15.85a3.64,3.64,0,0,0,4.21,3l4.12-.71Z"/><path class="cls-20" d="M316.87,126.23h24.57a0,0,0,0,1,0,0v48a0,0,0,0,1,0,0H316.87a21.73,21.73,0,0,1-21.73-21.73V148a21.73,21.73,0,0,1,21.73-21.73Z" transform="translate(-20.92 56.34) rotate(-9.79)"/><path class="cls-18" d="M317.26,174.93a22.26,22.26,0,0,1-21.89-18.45L294.6,152a22.25,22.25,0,0,1,18.12-25.69l24.21-4.18a.51.51,0,0,1,.58.41l8.16,47.29a.54.54,0,0,1-.08.37.5.5,0,0,1-.33.2l-24.2,4.18A22.34,22.34,0,0,1,317.26,174.93Zm19.35-51.71-23.72,4.1a21.25,21.25,0,0,0-17.31,24.53l.77,4.46a21.27,21.27,0,0,0,24.54,17.31l23.71-4.1Z"/><path class="cls-2" d="M337,122.64h0l8.16,47.29h0a91,91,0,0,1,55.32,7.95l38.21,18.62L416.23,66.25,386.47,96.61A90.88,90.88,0,0,1,337,122.64Z"/><ellipse class="cls-22" cx="428.89" cy="131.13" rx="16.12" ry="66.41" transform="translate(-16.06 74.87) rotate(-9.79)"/><ellipse class="cls-9" cx="428.89" cy="129.88" rx="12.95" ry="53.37" transform="translate(-15.84 74.86) rotate(-9.79)"/><g class="cls-23"><path class="cls-24" d="M401.69,122.92,418.64,120a12.72,12.72,0,0,1,14.7,10.36h0A12.72,12.72,0,0,1,423,145.06L406,148Z"/></g><ellipse class="cls-25" cx="428.89" cy="129.88" rx="12.95" ry="53.37" transform="translate(-15.84 74.86) rotate(-9.79)"/><line class="cls-9" x1="342.02" y1="121.63" x2="349.94" y2="169.24"/><path class="cls-18" d="M349.94,169.74a.49.49,0,0,1-.49-.42l-7.92-47.6a.5.5,0,0,1,.41-.58.49.49,0,0,1,.57.41l7.93,47.61a.5.5,0,0,1-.41.57Z"/><rect class="cls-9" x="330.58" y="196.26" width="29.69" height="11.78" rx="5.79" transform="translate(-44.98 114) rotate(-17.61)"/><path class="cls-18" d="M336.83,211.27a6.33,6.33,0,0,1-6-4.38l-.06-.19a6.3,6.3,0,0,1,4.09-7.9l17.27-5.48a6.29,6.29,0,0,1,7.89,4.09l.06.19a6.3,6.3,0,0,1-4.09,7.9L338.73,211A6.17,6.17,0,0,1,336.83,211.27ZM354,194a5.24,5.24,0,0,0-1.6.25l-17.26,5.48a5.29,5.29,0,0,0-3.44,6.64l.06.2a5.31,5.31,0,0,0,6.64,3.43l17.26-5.48a5.29,5.29,0,0,0,3.44-6.64l-.06-.19h0A5.3,5.3,0,0,0,354,194Z"/><rect class="cls-9" x="327.18" y="184.6" width="29.69" height="11.78" rx="5.79" transform="translate(-41.62 112.48) rotate(-17.62)"/><path class="cls-18" d="M333.42,199.62a6.34,6.34,0,0,1-6-4.39l-.06-.19a6.3,6.3,0,0,1,4.09-7.9l17.26-5.48a6.29,6.29,0,0,1,7.89,4.09l.06.19a6.3,6.3,0,0,1-4.09,7.9l-17.26,5.48A6.18,6.18,0,0,1,333.42,199.62Zm17.2-17.25a5.22,5.22,0,0,0-1.6.24l-17.26,5.49a5.3,5.3,0,0,0-3.44,6.63l.06.2a5.3,5.3,0,0,0,6.64,3.44l17.26-5.49a5.3,5.3,0,0,0,3.44-6.63l-.06-.2h0A5.28,5.28,0,0,0,350.62,182.37Z"/><path class="cls-9" d="M359.6,209.52l0,0a5.73,5.73,0,0,1-3.71,7.17l-11.78,3.74a5.73,5.73,0,0,1-7.18-3.71v-.06a5.73,5.73,0,0,1,3.71-7.17l11.78-3.74A5.73,5.73,0,0,1,359.6,209.52Z"/><path class="cls-18" d="M342.4,221.25a6.25,6.25,0,0,1-1.9-12.19l11.78-3.74a6.23,6.23,0,0,1,7.8,4l0,0a6.24,6.24,0,0,1-4,7.81L344.28,221A6.09,6.09,0,0,1,342.4,221.25ZM354.15,206a5,5,0,0,0-1.57.25L340.8,210A5.24,5.24,0,0,0,344,220l11.77-3.74a5.23,5.23,0,0,0,3.39-6.55v-.05a5.25,5.25,0,0,0-5-3.64Z"/><rect class="cls-9" x="345.58" y="217.46" width="17.69" height="11.78" rx="5.79" transform="translate(-50.95 117.66) rotate(-17.6)"/><path class="cls-18" d="M351.54,230.65a6.31,6.31,0,0,1-6-4.38l-.06-.19a6.31,6.31,0,0,1,4.08-7.9l5.83-1.85a6.3,6.3,0,0,1,7.9,4.09h0l.06.2a6.32,6.32,0,0,1-4.09,7.89l-5.83,1.85A6.17,6.17,0,0,1,351.54,230.65ZM357.3,217a5.48,5.48,0,0,0-1.59.24l-5.83,1.86a5.3,5.3,0,0,0-3.44,6.63l.06.2a5.3,5.3,0,0,0,6.64,3.44l5.83-1.86a5.3,5.3,0,0,0,3.44-6.63l-.06-.2A5.3,5.3,0,0,0,357.3,217Z"/><path class="cls-9" d="M317.73,199.25s2.13-6.06,3.06-8.6c1-2.69,2-5.55,1.4-8.36s-3.47-5.32-6.19-4.43-7.76,12-9.36,14.6"/><path class="cls-18" d="M318.2,199.41l-.94-.33s2.13-6.06,3.06-8.6c.88-2.38,2-5.34,1.38-8.08a5.78,5.78,0,0,0-2.65-3.68,3.54,3.54,0,0,0-2.89-.39c-1.83.6-5.42,7.48-7.35,11.17-.75,1.43-1.34,2.56-1.74,3.22a.49.49,0,0,1-.69.16.49.49,0,0,1-.16-.68c.38-.63,1-1.8,1.7-3.16,3-5.76,5.88-11,7.92-11.66a4.52,4.52,0,0,1,3.71.48,6.73,6.73,0,0,1,3.13,4.33c.64,3-.5,6.14-1.42,8.64S318.2,199.41,318.2,199.41Z"/><path class="cls-18" d="M313,215.93h0a.51.51,0,0,1-.5-.51c.06-5.5,4.58-15.93,4.77-16.37a.51.51,0,0,1,.66-.26.5.5,0,0,1,.26.66c-.05.11-4.63,10.68-4.69,16A.5.5,0,0,1,313,215.93Z"/><path class="cls-18" d="M278.46,85.28a4.27,4.27,0,0,0,.58-1,19.92,19.92,0,0,0-13.12-33,20.78,20.78,0,0,0-2.73,0c-9.67-8.35-16.42-17.38-33.37-15.2a23.24,23.24,0,0,0-16.33,9.65,19.57,19.57,0,0,0-1.38,2.41c-.34.67-9,1.64-10.13,2-8.08,2.23-18.42,5.56-22.45,13.56A27.74,27.74,0,0,0,177,75.1a19.59,19.59,0,0,0-6.12,21.14l6.36,20a17.14,17.14,0,0,1,4.14-.53h8.1c.5.85,1,1.7,1.48,2.56A26.88,26.88,0,0,1,195,132.61c10.48-14.65,60.63-10.83,71.76-10.83a20.14,20.14,0,0,0,11.75-36.5Z"/><path class="cls-18" d="M195,133.11a.44.44,0,0,1-.16,0,.5.5,0,0,1-.34-.49c.17-4.55-1.1-9.15-3.89-14.07-.43-.78-.88-1.55-1.33-2.31h-7.81a16.68,16.68,0,0,0-4,.52.5.5,0,0,1-.6-.33l-6.35-20a20,20,0,0,1,6.1-21.54,28.18,28.18,0,0,1,2.54-11.49c3.87-7.69,13.22-11.19,22.75-13.82.41-.12,1.58-.29,3.06-.51,2.16-.32,6.14-.9,6.8-1.27a20.5,20.5,0,0,1,1.38-2.39,23.69,23.69,0,0,1,16.68-9.87c14.79-1.9,22.1,4.76,29.83,11.81,1.22,1.11,2.47,2.26,3.77,3.38a19.83,19.83,0,0,1,2.61.06,20.4,20.4,0,0,1,13.5,33.77,3.32,3.32,0,0,1-.33.65,20.63,20.63,0,0,1-12.43,37.11c-1.48,0-3.59-.06-6.26-.14-16.81-.53-56.15-1.74-65.09,10.77A.51.51,0,0,1,195,133.11Zm-13.53-17.89h8.1a.5.5,0,0,1,.43.25c.5.85,1,1.7,1.49,2.56a28.21,28.21,0,0,1,4,13.16c10.63-11.73,47.17-10.6,65-10,2.66.08,4.77.14,6.23.14a19.64,19.64,0,0,0,11.46-35.59.56.56,0,0,1-.21-.33.5.5,0,0,1,.1-.37,3.86,3.86,0,0,0,.51-.91.56.56,0,0,1,.1-.15,19.43,19.43,0,0,0-12.79-32.19,20.92,20.92,0,0,0-2.67,0,.5.5,0,0,1-.35-.12c-1.36-1.18-2.68-2.38-3.95-3.53-7.88-7.19-14.68-13.4-29-11.56a22.72,22.72,0,0,0-16,9.44,17.86,17.86,0,0,0-1.35,2.35c-.26.52-1.33.83-7.52,1.74-1.33.2-2.58.38-2.93.48-9.31,2.58-18.43,6-22.13,13.31-1.49,3-2.27,6.55-2.44,11.31a.54.54,0,0,1-.19.37,19,19,0,0,0-5.95,20.6l6.21,19.57A17.41,17.41,0,0,1,181.42,115.22Zm30.32-67.49Z"/><path class="cls-9" d="M238.88,87.27c-2.08-1.11-4.17-2.36-6.51-2.7-5.77-.84-11.05,4-16.88,3.84a10.32,10.32,0,0,1-9.35-7.15A67.34,67.34,0,0,1,195,132.61,26.88,26.88,0,0,0,191,118.28c-.49-.86-1-1.71-1.48-2.56h-8.1a17.26,17.26,0,0,0-17.15,17.16v1.67a17.2,17.2,0,0,0,17.15,17.15H186L181.42,209a30.41,30.41,0,0,0,27.88,32.74l3,.24A30.41,30.41,0,0,0,245,214.06l1.73-21.57a27.79,27.79,0,0,0,27.33-27.77v-67a27.48,27.48,0,0,0-1.31-8.35,22.09,22.09,0,0,1-4.26,2C258.79,94.68,247.93,92.09,238.88,87.27Z"/><path class="cls-18" d="M214.74,242.55c-.84,0-1.67,0-2.52-.1l-3-.24a30.91,30.91,0,0,1-28.34-33.28l4.54-56.73h-4a17.67,17.67,0,0,1-17.65-17.65v-1.67a17.77,17.77,0,0,1,17.65-17.66h8.1a.5.5,0,0,1,.43.25c.5.85,1,1.7,1.49,2.56a28.16,28.16,0,0,1,4,13,67.22,67.22,0,0,0,10.2-49.67.5.5,0,0,1,1-.23,9.78,9.78,0,0,0,8.89,6.79c2.66.08,5.24-1,7.77-2,2.94-1.15,6-2.35,9.17-1.88a18.12,18.12,0,0,1,5.94,2.36l.73.39h0c6,3.2,17.76,8,29.2,4a21.66,21.66,0,0,0,4.17-2,.5.5,0,0,1,.43,0,.48.48,0,0,1,.3.32,27.94,27.94,0,0,1,1.34,8.5v67A28.42,28.42,0,0,1,247.19,193L245.5,214.1a30.94,30.94,0,0,1-30.76,28.45ZM181.42,116.22a16.78,16.78,0,0,0-16.65,16.66v1.67a16.67,16.67,0,0,0,16.65,16.65H186a.52.52,0,0,1,.37.16.53.53,0,0,1,.13.38L181.91,209a29.92,29.92,0,0,0,27.43,32.2l3,.24A29.92,29.92,0,0,0,244.51,214l1.72-21.57a.5.5,0,0,1,.49-.46,27.41,27.41,0,0,0,26.84-27.27v-67a26.78,26.78,0,0,0-1.11-7.6,21.52,21.52,0,0,1-3.8,1.73c-11.8,4.05-23.86-.83-30-4.11l-.73-.39a17.31,17.31,0,0,0-5.62-2.25c-2.93-.43-5.71.66-8.66,1.83-2.61,1-5.33,2.09-8.16,2a10.84,10.84,0,0,1-8.3-4.47,68.4,68.4,0,0,1-11.82,48.47.5.5,0,0,1-.57.18.5.5,0,0,1-.34-.49c.17-4.55-1.1-9.15-3.89-14.07-.43-.78-.88-1.55-1.33-2.31Z"/><polygon class="cls-18" points="190.07 151.75 184.67 166.52 181.28 151.69 190.07 151.75"/><path class="cls-18" d="M184.67,167h0a.49.49,0,0,1-.46-.39l-3.39-14.83a.53.53,0,0,1,.1-.42.62.62,0,0,1,.39-.19l8.79.06a.49.49,0,0,1,.41.21.53.53,0,0,1,.06.46l-5.4,14.77A.51.51,0,0,1,184.67,167Zm-2.76-14.82,2.87,12.56,4.58-12.52Z"/><polyline class="cls-9" points="179.04 128.2 185.33 135.2 179.44 139.04"/><path class="cls-18" d="M179.44,139.54a.51.51,0,0,1-.42-.23.5.5,0,0,1,.15-.69l5.4-3.52-5.9-6.57a.49.49,0,0,1,0-.7.5.5,0,0,1,.71,0l6.29,7a.48.48,0,0,1,.12.4.51.51,0,0,1-.22.35l-5.88,3.84A.57.57,0,0,1,179.44,139.54Z"/><path class="cls-18" d="M246.59,142.23h-4.81a.5.5,0,0,1-.5-.5.51.51,0,0,1,.5-.5h4.81a5.35,5.35,0,0,0,5.27-6.27l-3-16.87a.5.5,0,0,1,.4-.58.5.5,0,0,1,.58.4l3,16.88a6.34,6.34,0,0,1-6.25,7.44Z"/><path class="cls-18" d="M262.32,127a3.5,3.5,0,1,1-4.06-2.82A3.5,3.5,0,0,1,262.32,127Z"/><path class="cls-18" d="M243.55,174.16a.76.76,0,0,1-.49,0c-.16-.08-4-1.76-6.86,1.26a.73.73,0,1,1-1.06-1c3.59-3.79,8.48-1.61,8.53-1.58a.73.73,0,0,1,.36,1A.79.79,0,0,1,243.55,174.16Z"/><path class="cls-18" d="M215.54,114c1.75.19,3.68-.6,5.6-1.26s3.85-1.37,5.56-1.89,3.69-1,5.67-1.52,4-.93,5.34-2,1.34-3-1.06-4.68-7.24-2.65-12.9-1-9.14,5.31-10.06,7.91S213.87,113.85,215.54,114Z"/><path class="cls-18" d="M269.62,111.16c-1.29.25-2.73-.33-4.15-.79s-2.86-1-4.13-1.32-2.74-.7-4.21-1-3-.59-4-1.47-1-2.46.82-4,5.4-2.55,9.61-1.39,6.76,4,7.43,6.13S270.87,110.94,269.62,111.16Z"/><path class="cls-18" d="M231.9,128.16a3.82,3.82,0,1,1-3.52-4.1A3.82,3.82,0,0,1,231.9,128.16Z"/><path class="cls-9" d="M224.14,131.88a5.46,5.46,0,0,1,6.73.47"/><path class="cls-18" d="M230.87,132.85a.5.5,0,0,1-.33-.12,4.9,4.9,0,0,0-6.1-.44.5.5,0,0,1-.59-.81,6,6,0,0,1,7.35.5.49.49,0,0,1,.05.7A.48.48,0,0,1,230.87,132.85Z"/><path class="cls-9" d="M256.16,131.63a7.59,7.59,0,0,1,5.95.07"/><path class="cls-18" d="M262.11,132.2a.49.49,0,0,1-.23-.06,7.09,7.09,0,0,0-5.51,0,.5.5,0,0,1-.66-.25.49.49,0,0,1,.25-.66,8,8,0,0,1,6.37.07.49.49,0,0,1,.22.67A.48.48,0,0,1,262.11,132.2Z"/><path class="cls-21" d="M223.12,143a3.47,3.47,0,0,1,4.25.41,23.78,23.78,0,0,0,13.45,6.11,2.46,2.46,0,0,1,1.78,3.55c-1.55,3.27-5.68,8.31-14.29,4.27C217.83,152.44,219.67,145.3,223.12,143Z"/><path class="cls-18" d="M234.19,159.34a14.37,14.37,0,0,1-6.09-1.54c-6.76-3.16-8-7.06-8.17-9.09a6.82,6.82,0,0,1,2.91-6.12h0a4,4,0,0,1,4.87.46,23.24,23.24,0,0,0,13.16,6,2.67,2.67,0,0,1,2.07,1.38,3.15,3.15,0,0,1,.11,2.88C242.26,155,239.66,159.34,234.19,159.34Zm-10.8-15.91a5.77,5.77,0,0,0-2.46,5.2c.23,3.14,2.93,6.08,7.6,8.27,8.66,4.06,12.41-1.47,13.62-4a2.15,2.15,0,0,0-.08-2,1.67,1.67,0,0,0-1.3-.89A24.21,24.21,0,0,1,227,143.79a3,3,0,0,0-3.65-.36Z"/><path class="cls-18" d="M246.55,192.65s-31.25,2-39-10.65c0,0,6.95,20.88,37.57,28.14Z"/><path class="cls-18" d="M245.15,210.64H245c-30.54-7.24-37.86-28.26-37.93-28.47a.49.49,0,0,1,.27-.61.51.51,0,0,1,.63.19c7.47,12.26,38.2,10.43,38.51,10.41a.47.47,0,0,1,.39.15.5.5,0,0,1,.14.39l-1.4,17.49a.49.49,0,0,1-.2.36A.47.47,0,0,1,245.15,210.64Zm-35.44-25.33c3.44,6.15,13,18.81,35,24.21L246,193.18C242,193.38,219.35,194.08,209.71,185.31Z"/><path class="cls-9" d="M70.78,408.78l2.78-72,75.6,2.43c0,.44,7.2-53.49,7.16-53.05l-7.16,53.05-10.07-.31-1,24s68.53-35.05,74.4-42.11c0,0,19.83-19.78,27.75-25.15a8.73,8.73,0,0,1,2.73-1.4,3.28,3.28,0,0,1,2.92.49c1,.85,1.2,2.35,1.14,3.68-.18,4.14-1.82,8-3.45,11.86.48-.15,50.57-16.75,53.33-17.44,4.74-1.2,4.51,5.35,1.15,8.91-4.29,4.54-24.24,15-25.32,15.3,4.81-.18,9.42-1.16,10.57,6.69.79,5.41-4,6.91-8.86,7.47,3.07.12,5.7,1.14,6,4.78,1.21,6.17-3.91,8.66-9,9.3a.14.14,0,0,0,0,.27c4.19,1.64,1.29,9.34-4.87,11.58l-34.46,14.53c-3.53,1.6-95.79,71.77-95.79,71.77A41.32,41.32,0,0,1,102,449.69C83.52,445,70.85,427.88,70.78,408.78Z"/><path class="cls-18" d="M112.45,451.51a42.51,42.51,0,0,1-10.55-1.34c-18.54-4.72-31.54-21.74-31.62-41.38v0l2.78-72a.5.5,0,0,1,.52-.48l75.14,2.42,6.82-50.55.19-1.32.1-.74h0c.12-.48.23-.47.52-.44a.51.51,0,0,1,.44.54l-2.9,21.52c-.14,1-.27,2-.4,3L150,336.76c-.1.72-.17,1.27-.23,1.68l-.12.83a.47.47,0,0,1-.14.29c-.09.17-.21.16-.4.14h0l-9.52-.29-.95,22.6c7.54-3.87,68.08-35.08,73.48-41.59.23-.24,20-19.91,27.86-25.25a9.7,9.7,0,0,1,2.88-1.47,3.82,3.82,0,0,1,3.37.59c1,.81,1.41,2.15,1.32,4.09-.17,3.9-1.58,7.52-3.06,11l1.06-.35c40.34-13.34,50.14-16.47,51.25-16.76,2.27-.57,3.3.53,3.72,1.23,1.23,2.12.29,6-2.08,8.51-3.49,3.69-17.44,11.46-23.17,14.34,3.86-.13,7.55.38,8.55,7.23a6,6,0,0,1-1,4.67,9.22,9.22,0,0,1-5.32,2.89,5,5,0,0,1,3.46,4.74,7.22,7.22,0,0,1-1.08,5.82c-1.71,2.37-4.76,3.4-7.34,3.85a3.68,3.68,0,0,1,1.34,3.11c0,3.1-2.73,7.26-7.17,8.87l-34.43,14.52c-2.75,1.24-63.79,47.45-95.68,71.71A41.8,41.8,0,0,1,112.45,451.51ZM71.28,408.79c.08,19.18,12.77,35.8,30.87,40.42A40.66,40.66,0,0,0,136,443c3.75-2.85,92.32-70.21,95.87-71.81l34.46-14.54c4-1.45,6.51-5.26,6.54-7.95a2.63,2.63,0,0,0-1.65-2.7.64.64,0,0,1,.15-1.24c3.61-.45,6.34-1.72,7.69-3.6a6.25,6.25,0,0,0,.9-5.1c-.22-2.87-2-4.25-5.51-4.38a.5.5,0,0,1-.48-.48.49.49,0,0,1,.44-.51c4-.46,6.39-1.41,7.6-3a4.9,4.9,0,0,0,.82-3.91c-1-6.72-4.44-6.55-8.82-6.32l-1.24.06a.5.5,0,0,1-.13-1c1.31-.36,20.91-10.75,25.08-15.15,2.2-2.33,2.83-5.79,1.93-7.32-.48-.82-1.36-1.08-2.6-.77s-10.87,3.41-51.18,16.74l-2.12.7a.48.48,0,0,1-.52-.14.47.47,0,0,1-.09-.53c1.59-3.74,3.23-7.6,3.41-11.69.07-1.61-.24-2.68-1-3.28a2.81,2.81,0,0,0-2.48-.39,8.53,8.53,0,0,0-2.57,1.33c-7.79,5.28-27.48,24.89-27.68,25.09-5.83,7-71.72,40.77-74.53,42.21a.5.5,0,0,1-.72-.47l1-23.47L74,337.29Z"/><polygon class="cls-18" points="138.22 350.49 108.5 378.5 138.09 363.38 138.22 350.49"/><path class="cls-18" d="M243.14,310.86l-18.64,8.69s17.48-13.87,21-15Z"/><path class="cls-9" d="M262.35,320.19s11.33-3.76,13.3-3.84"/><path class="cls-18" d="M262.35,320.69a.5.5,0,0,1-.16-1c.47-.16,11.42-3.78,13.43-3.87a.52.52,0,0,1,.53.48.51.51,0,0,1-.48.52c-1.56.07-10,2.78-13.17,3.82Z"/><line class="cls-9" x1="275.47" y1="331" x2="264.94" y2="334.28"/><path class="cls-18" d="M264.94,334.78a.5.5,0,0,1-.15-1l10.53-3.29a.5.5,0,0,1,.3,1l-10.53,3.28A.39.39,0,0,1,264.94,334.78Z"/><line class="cls-9" x1="270.7" y1="345.3" x2="264.99" y2="346.95"/><path class="cls-18" d="M265,347.45a.5.5,0,0,1-.48-.37.49.49,0,0,1,.34-.61l5.71-1.65a.5.5,0,1,1,.28,1l-5.71,1.65Z"/></g></svg>
