<svg xmlns="http://www.w3.org/2000/svg" viewBox="0 0 133.66 131.08"><defs><style>.cls-1{fill:#fff;}.cls-2{fill:#318cd3;}.cls-3{fill:#55007c;}.cls-4{fill:#8612ad;}.cls-5{fill:#70bde8;}</style></defs><g id="Layer_2" data-name="Layer 2"><g id="OBJECTS"><ellipse class="cls-1" cx="66.83" cy="65.54" rx="66.83" ry="65.54"/><path class="cls-2" d="M61.17,94.53a16.85,16.85,0,0,1,0,24.81l-7.34,6.5-41-36.38a16.84,16.84,0,0,1,0-24.81l7.33-6.5Z"/><path class="cls-3" d="M72.07,36.07a16.85,16.85,0,0,1,0-24.82L79.4,4.76l41,36.37a16.84,16.84,0,0,1,0,24.81l-7.33,6.5Z"/><path class="cls-4" d="M72.28,71.2a16.84,16.84,0,0,0,0,24.81l7.33,6.5,41.05-36.38a16.84,16.84,0,0,0,0-24.81l-7.33-6.5Z"/><path class="cls-5" d="M61,59.42a16.84,16.84,0,0,0,0-24.81l-7.33-6.5-41,36.37a16.84,16.84,0,0,0,0,24.81l7.34,6.5Z"/></g></g></svg>