<svg xmlns="http://www.w3.org/2000/svg" viewBox="0 0 118.96 121.08"><defs><style>.cls-1{fill:#318cd3;}.cls-2{fill:#55007c;}.cls-3{fill:#8612ad;}.cls-4{fill:#70bde8;}</style></defs><g id="Layer_2" data-name="Layer 2"><g id="OBJECTS"><path class="cls-1" d="M54,89.77a16.84,16.84,0,0,1,0,24.81l-7.33,6.5-41-36.37a16.85,16.85,0,0,1,0-24.82L13,53.4Z"/><path class="cls-2" d="M64.92,31.31a16.84,16.84,0,0,1,0-24.81L72.25,0l41,36.37a16.85,16.85,0,0,1,0,24.82L106,67.68Z"/><path class="cls-3" d="M65.13,66.44a16.84,16.84,0,0,0,0,24.81l7.33,6.5,41.05-36.37a16.86,16.86,0,0,0,0-24.82l-7.34-6.49Z"/><path class="cls-4" d="M53.83,54.66a16.84,16.84,0,0,0,0-24.81l-7.34-6.5-41,36.38a16.84,16.84,0,0,0,0,24.81L12.78,91Z"/></g></g></svg>